<?xml version="1.0" encoding="utf-8"?>
<!-- Generator: Adobe Illustrator 21.1.0, SVG Export Plug-In . SVG Version: 6.00 Build 0)  -->
<svg version="1.1" id="Layer_1" xmlns="http://www.w3.org/2000/svg" xmlns:xlink="http://www.w3.org/1999/xlink" x="0px" y="0px"
	 viewBox="0 0 256 292" style="enable-background:new 0 0 256 292;" xml:space="preserve">
<style type="text/css">
	.st0{fill:#EBC17D;}
	.st1{fill:#252D54;}
	.st2{fill:#EBC17D;stroke:#EBC17D;stroke-width:2;stroke-miterlimit:10;}
</style>
<g>
	<g>
		<path class="st0" d="M123.4,288.2c4.2,2.4,9.3,2.4,13.5,0l111.7-64.5c4.2-2.4,6.7-6.9,6.7-11.7V83c0-4.8-2.6-9.3-6.7-11.7
			L136.9,6.8c-4.2-2.4-9.3-2.4-13.5,0L11.7,71.3C7.6,73.7,5,78.2,5,83v129c0,4.8,2.6,9.3,6.7,11.7L123.4,288.2"/>
	</g>
	<path class="st1" d="M118.4,284.2c4.2,2.4,9.3,2.4,13.5,0l111.7-64.5c4.2-2.4,6.7-6.9,6.7-11.7V79c0-4.8-2.6-9.3-6.7-11.7
		L131.9,2.8c-4.2-2.4-9.3-2.4-13.5,0L6.7,67.3C2.6,69.7,0,74.2,0,79v129c0,4.8,2.6,9.3,6.7,11.7L118.4,284.2"/>
</g>
<g>
	<path class="st2" d="M40.6,157.4v-19.1h23.8v-1.1H40.6v-17.4h25.3v-1.1H39.4v39.8h26.7v-1.1L40.6,157.4L40.6,157.4z M87.6,129.8
		l-9.9,13l-9.7-13h-1.5l10.4,13.8l-11.4,14.8H67l10.8-14l10.8,14H90l-11.5-14.8L89,129.8H87.6L87.6,129.8z M93.3,168.3v-17.9h0.1
		c0.7,2.6,2,4.7,4,6.3s4.5,2.4,7.5,2.4c2,0,3.7-0.4,5.2-1.2s2.8-1.9,3.8-3.3s1.8-3,2.3-4.8s0.8-3.7,0.8-5.7c0-2.2-0.3-4.1-0.8-6
		c-0.6-1.8-1.4-3.4-2.4-4.7s-2.3-2.4-3.9-3.1c-1.5-0.7-3.2-1.1-5.1-1.1c-1.5,0-2.8,0.2-4,0.6c-1.2,0.4-2.4,1-3.3,1.8
		c-1,0.8-1.8,1.7-2.5,2.8s-1.2,2.2-1.6,3.5h-0.1v-8h-1.1v38.5h1.1V168.3z M104.9,158.1c-3.5,0-6.3-1.2-8.4-3.6
		c-2.1-2.4-3.2-5.9-3.2-10.4c0-1.9,0.3-3.6,0.8-5.3s1.3-3.1,2.3-4.4s2.2-2.3,3.7-3s3.1-1.1,4.9-1.1c1.9,0,3.5,0.4,4.9,1.1
		c1.4,0.7,2.5,1.8,3.5,3s1.6,2.8,2.1,4.4c0.5,1.7,0.7,3.4,0.7,5.3c0,1.7-0.2,3.3-0.6,5s-1.1,3.1-2,4.5c-0.9,1.3-2,2.4-3.4,3.2
		C108.6,157.6,106.9,158.1,104.9,158.1L104.9,158.1L104.9,158.1z M123.3,158.5v-16.2c0-1.6,0.2-3.1,0.7-4.6s1.1-2.8,2.1-3.9
		c0.9-1.1,2.1-2,3.5-2.7c1.4-0.7,3.1-0.9,5.1-0.8v-1.1c-1.7,0-3.2,0.1-4.5,0.6c-1.3,0.4-2.4,1-3.3,1.7s-1.7,1.5-2.2,2.5
		c-0.6,0.9-1,2-1.2,3h-0.1v-7.1h-1.1v28.7L123.3,158.5L123.3,158.5z M136,144.4h24c0.1-2-0.1-3.9-0.6-5.7s-1.2-3.4-2.2-4.9
		c-1-1.4-2.3-2.5-4-3.4c-1.6-0.9-3.5-1.3-5.8-1.3c-1.6,0-3.2,0.3-4.7,1s-2.9,1.6-4,2.9c-1.2,1.3-2.1,2.9-2.8,4.7
		c-0.7,1.9-1.1,4-1.1,6.4c0,2.1,0.2,4.1,0.7,5.9c0.5,1.8,1.2,3.4,2.2,4.8c1,1.4,2.3,2.4,3.9,3.2c1.6,0.7,3.5,1.1,5.7,1.1
		c3.3,0,6-0.9,8.3-2.8c2.2-1.8,3.6-4.4,4-7.8h-1.1c-0.5,3.2-1.7,5.5-3.7,7.1s-4.5,2.4-7.5,2.4c-2,0-3.8-0.4-5.2-1.1
		c-1.4-0.7-2.6-1.7-3.5-2.9s-1.6-2.7-2-4.3S136.1,146.3,136,144.4L136,144.4L136,144.4z M158.9,143.3H136c0.1-2,0.5-3.8,1.1-5.4
		s1.5-3,2.5-4.1s2.2-2,3.6-2.6c1.4-0.6,2.8-0.9,4.4-0.9c1.9,0,3.5,0.3,4.9,1s2.6,1.6,3.5,2.8s1.7,2.6,2.1,4.2
		C158.7,139.9,158.9,141.5,158.9,143.3L158.9,143.3L158.9,143.3z M183.2,138.3h1.1c0-3.2-0.9-5.5-2.8-7c-1.9-1.5-4.4-2.2-7.6-2.2
		c-1.8,0-3.3,0.2-4.5,0.7s-2.2,1-3,1.7s-1.3,1.5-1.7,2.3c-0.3,0.9-0.5,1.7-0.5,2.5c0,1.6,0.3,2.8,0.8,3.7c0.6,0.9,1.4,1.7,2.6,2.2
		c0.8,0.4,1.7,0.7,2.8,1s2.3,0.6,3.6,0.9c1.2,0.3,2.4,0.6,3.6,0.9c1.2,0.3,2.2,0.7,3.2,1.2c0.9,0.5,1.7,1.1,2.2,1.9s0.9,1.8,0.9,3.1
		c0,1.2-0.3,2.3-0.9,3.1s-1.3,1.6-2.2,2.1s-1.9,0.9-3,1.2c-1.1,0.2-2.2,0.4-3.2,0.4c-3.4,0-6-0.8-7.8-2.3s-2.7-3.9-2.7-7.1H163
		c0,3.6,1,6.3,2.9,7.9c2,1.7,4.8,2.5,8.7,2.5c1.2,0,2.5-0.1,3.7-0.4s2.4-0.7,3.3-1.4c1-0.6,1.8-1.5,2.4-2.5c0.6-1,0.9-2.2,0.9-3.7
		c0-1.4-0.3-2.5-0.8-3.3s-1.2-1.6-2.1-2.1c-0.9-0.6-1.9-1-3-1.3s-2.2-0.6-3.3-0.9c-1.6-0.4-2.9-0.8-4.1-1.1
		c-1.2-0.3-2.3-0.7-3.3-1.1c-1-0.4-1.7-1-2.3-1.8s-0.9-1.9-0.9-3.3c0-0.3,0.1-0.7,0.2-1.4c0.1-0.7,0.5-1.3,1.1-2s1.4-1.3,2.6-1.8
		c1.2-0.5,2.7-0.8,4.7-0.8c1.4,0,2.6,0.1,3.8,0.4c1.1,0.3,2.1,0.8,2.9,1.4c0.8,0.7,1.5,1.5,1.9,2.5
		C183,135.6,183.2,136.9,183.2,138.3L183.2,138.3L183.2,138.3z M209,138.3h1.1c0-3.2-0.9-5.5-2.8-7c-1.9-1.5-4.4-2.2-7.6-2.2
		c-1.8,0-3.3,0.2-4.5,0.7s-2.2,1-3,1.7s-1.3,1.5-1.7,2.3s-0.5,1.7-0.5,2.5c0,1.6,0.3,2.8,0.8,3.7c0.6,0.9,1.4,1.7,2.6,2.2
		c0.8,0.4,1.7,0.7,2.8,1c1,0.3,2.3,0.6,3.6,0.9c1.2,0.3,2.4,0.6,3.6,0.9c1.2,0.3,2.2,0.7,3.2,1.2c0.9,0.5,1.7,1.1,2.2,1.9
		s0.9,1.8,0.9,3.1c0,1.2-0.3,2.3-0.9,3.1s-1.3,1.6-2.2,2.1s-1.9,0.9-3,1.2c-1.1,0.2-2.2,0.4-3.2,0.4c-3.4,0-6-0.8-7.8-2.3
		s-2.7-3.9-2.7-7.1H189c0,3.6,1,6.3,2.9,7.9c2,1.7,4.8,2.5,8.7,2.5c1.2,0,2.5-0.1,3.7-0.4c1.2-0.3,2.4-0.7,3.3-1.4s1.8-1.5,2.4-2.5
		c0.6-1,0.9-2.2,0.9-3.7c0-1.4-0.3-2.5-0.8-3.3s-1.2-1.6-2.1-2.1c-0.9-0.6-1.9-1-3-1.3s-2.2-0.6-3.3-0.9c-1.6-0.4-2.9-0.8-4.1-1.1
		c-1.2-0.3-2.3-0.7-3.3-1.1c-1-0.4-1.7-1-2.3-1.8s-0.9-1.9-0.9-3.3c0-0.3,0.1-0.7,0.2-1.4c0.1-0.7,0.5-1.3,1.1-2s1.4-1.3,2.6-1.8
		c1.2-0.5,2.7-0.8,4.7-0.8c1.4,0,2.6,0.1,3.8,0.4c1.1,0.3,2.1,0.8,2.9,1.4c0.8,0.7,1.5,1.5,1.9,2.5S209,136.9,209,138.3L209,138.3
		L209,138.3z"/>
</g>
</svg>
