<?xml version="1.0" encoding="utf-8"?>
<!-- Generator: Adobe Illustrator 21.1.0, SVG Export Plug-In . SVG Version: 6.00 Build 0)  -->
<svg version="1.1" id="Layer_1" xmlns="http://www.w3.org/2000/svg" xmlns:xlink="http://www.w3.org/1999/xlink" x="0px" y="0px"
	 viewBox="0 0 256 292" style="enable-background:new 0 0 256 292;" xml:space="preserve">
<style type="text/css">
	.st0{fill:#EBC17D;}
	.st1{fill:#252D54;}
	.st2{fill:#D6A967;}
	.st3{fill:#D19D5A;}
</style>
<g>
	<g>
		<path class="st0" d="M123.4,288.2c4.2,2.4,9.3,2.4,13.5,0l111.7-64.5c4.2-2.4,6.7-6.9,6.7-11.7V83c0-4.8-2.6-9.3-6.7-11.7
			L136.9,6.8c-4.2-2.4-9.3-2.4-13.5,0L11.7,71.3C7.6,73.7,5,78.2,5,83v129c0,4.8,2.6,9.3,6.7,11.7L123.4,288.2"/>
	</g>
	<path class="st1" d="M118.4,284.2c4.2,2.4,9.3,2.4,13.5,0l111.7-64.5c4.2-2.4,6.7-6.9,6.7-11.7V79c0-4.8-2.6-9.3-6.7-11.7
		L131.9,2.8c-4.2-2.4-9.3-2.4-13.5,0L6.7,67.3C2.6,69.7,0,74.2,0,79v129c0,4.8,2.6,9.3,6.7,11.7L118.4,284.2"/>
</g>
<g>
	<path class="st0" d="M81.3,180.5l0.7-1l34.5-65.5l0.1-0.7l-15.2-28.6c-1.3-2.4-4.9-1.8-5.3,0.9L81.3,180.5z"/>
	<g>
		<g>
			<path id="path-1" class="st2" d="M81.7,179.8l0.6-1.1l34.2-64.8l-15.2-28.7c-1.3-2.4-4.5-1.8-4.9,0.9L81.7,179.8z"/>
		</g>
		<g>
			<path id="path-1_10_" class="st2" d="M81.7,179.8l0.6-1.1l34.2-64.8l-15.2-28.7c-1.3-2.4-4.5-1.8-4.9,0.9L81.7,179.8z"/>
		</g>
	</g>
	<path class="st0" d="M127.7,134.9l11.3-11.6l-11.3-21.6c-1.1-2-4.1-2.1-5.1,0l-6.1,11.6v1L127.7,134.9z"/>
	<g>
		<g>
			<path id="path-3" class="st2" d="M127.5,134.4l11-11.3l-11-21c-1-2-3.6-2.2-4.6-0.2l-6.1,11.7l-0.2,0.6L127.5,134.4z"/>
		</g>
		<g>
			<path id="path-3_10_" class="st2" d="M127.5,134.4l11-11.3l-11-21c-1-2-3.6-2.2-4.6-0.2l-6.1,11.7l-0.2,0.6L127.5,134.4z"/>
		</g>
	</g>
	<polygon class="st3" points="81.3,180.5 81.6,180.2 82.8,179.7 127,135.7 127.6,134.2 116.5,113.2 	"/>
	<path class="st0" d="M129.1,202.7l40-22.3l-11.4-70.3c-0.4-2.2-3.1-3.1-4.6-1.5l-71.8,71.9l39.8,22.2
		C123.5,204.1,126.6,204.1,129.1,202.7"/>
	<path class="st0" d="M168.8,180.3l-11.3-69.8c-0.4-2.2-2.6-3.1-4.2-1.5l-71.5,71.5l39.3,22c2.5,1.4,5.5,1.4,8,0L168.8,180.3z"/>
	<path class="st0" d="M129.1,202.1c-2.5,1.4-5.6,1.4-8.1,0l-39.4-21.9l-0.3,0.3l39.8,22.2c2.5,1.4,5.6,1.4,8.1,0l40-22.3l-0.1-0.6
		L129.1,202.1z"/>
</g>
</svg>
