<?xml version="1.0" encoding="utf-8"?>
<!-- Generator: Adobe Illustrator 21.1.0, SVG Export Plug-In . SVG Version: 6.00 Build 0)  -->
<svg version="1.1" id="Layer_1" xmlns="http://www.w3.org/2000/svg" xmlns:xlink="http://www.w3.org/1999/xlink" x="0px" y="0px"
	 viewBox="0 0 256 292" style="enable-background:new 0 0 256 292;" xml:space="preserve">
<style type="text/css">
	.st0{fill:#EBC17D;}
	.st1{fill:#252D54;}
</style>
<g>
	<g>
		<path class="st0" d="M123.4,288.2c4.2,2.4,9.3,2.4,13.5,0l111.7-64.5c4.2-2.4,6.7-6.9,6.7-11.7V83c0-4.8-2.6-9.3-6.7-11.7
			L136.9,6.8c-4.2-2.4-9.3-2.4-13.5,0L11.7,71.3C7.6,73.7,5,78.2,5,83v129c0,4.8,2.6,9.3,6.7,11.7L123.4,288.2"/>
	</g>
	<path class="st1" d="M118.4,284.2c4.2,2.4,9.3,2.4,13.5,0l111.7-64.5c4.2-2.4,6.7-6.9,6.7-11.7V79c0-4.8-2.6-9.3-6.7-11.7
		L131.9,2.8c-4.2-2.4-9.3-2.4-13.5,0L6.7,67.3C2.6,69.7,0,74.2,0,79v129c0,4.8,2.6,9.3,6.7,11.7L118.4,284.2"/>
	<path class="st0" d="M61,172.3l14.9-9c2.9,5.1,5.5,9.4,11.8,9.4c6,0,9.8-2.4,9.8-11.5V99h18.3v62.5c0,19-11.1,27.6-27.3,27.6
		C73.8,189.1,65.3,181.5,61,172.3"/>
	<path class="st0" d="M125.7,170.4l14.9-8.6c3.9,6.4,9,11.1,18,11.1c7.6,0,12.4-3.8,12.4-9c0-6.3-5-8.5-13.3-12.2l-4.6-2
		c-13.2-5.6-22-12.7-22-27.6c0-13.7,10.5-24.2,26.8-24.2c11.6,0,20,4.1,26,14.6l-14.2,9.1c-3.1-5.6-6.5-7.8-11.8-7.8
		c-5.4,0-8.8,3.4-8.8,7.8c0,5.5,3.4,7.7,11.2,11.1l4.6,2c15.6,6.7,24.3,13.5,24.3,28.8c0,16.5-12.9,25.5-30.3,25.5
		C142.1,189.1,131.1,181,125.7,170.4"/>
</g>
</svg>
