<?xml version="1.0" encoding="utf-8"?>
<!-- Generator: Adobe Illustrator 21.1.0, SVG Export Plug-In . SVG Version: 6.00 Build 0)  -->
<svg version="1.1" id="Layer_1" xmlns="http://www.w3.org/2000/svg" xmlns:xlink="http://www.w3.org/1999/xlink" x="0px" y="0px"
	 viewBox="0 0 256 292" style="enable-background:new 0 0 256 292;" xml:space="preserve">
<style type="text/css">
	.st0{fill:#EBC17D;}
	.st1{fill:#252D54;}
	.st2{fill:#D6AA6B;}
</style>
<g>
	<g>
		<path class="st0" d="M123.4,288.2c4.2,2.4,9.3,2.4,13.5,0l111.7-64.5c4.2-2.4,6.7-6.9,6.7-11.7V83c0-4.8-2.6-9.3-6.7-11.7
			L136.9,6.8c-4.2-2.4-9.3-2.4-13.5,0L11.7,71.3C7.6,73.7,5,78.2,5,83v129c0,4.8,2.6,9.3,6.7,11.7L123.4,288.2"/>
	</g>
	<path class="st1" d="M118.4,284.2c4.2,2.4,9.3,2.4,13.5,0l111.7-64.5c4.2-2.4,6.7-6.9,6.7-11.7V79c0-4.8-2.6-9.3-6.7-11.7
		L131.9,2.8c-4.2-2.4-9.3-2.4-13.5,0L6.7,67.3C2.6,69.7,0,74.2,0,79v129c0,4.8,2.6,9.3,6.7,11.7L118.4,284.2"/>
</g>
<g>
	<path class="st2" d="M54.2,93.2l70-24.9l71.9,24.5l-11.6,92.6l-60.3,33.4l-59.3-32.9L54.2,93.2z"/>
	<path class="st0" d="M196.1,92.8l-71.9-24.5v150.5l60.3-33.3L196.1,92.8L196.1,92.8z"/>
	<path class="st1" d="M124.4,85.8L124.4,85.8l-43.6,97.1l16.3-0.3l8.8-21.9h18.6h0.1h20.5l9.6,22.2l15.6,0.3L124.4,85.8L124.4,85.8z
		 M124.5,116.9l14.7,30.8h-14.1h-0.7h-12.9L124.5,116.9L124.5,116.9z"/>
</g>
</svg>
