<?xml version="1.0" encoding="utf-8"?>
<!-- Generator: Adobe Illustrator 21.1.0, SVG Export Plug-In . SVG Version: 6.00 Build 0)  -->
<svg version="1.1" id="Layer_1" xmlns="http://www.w3.org/2000/svg" xmlns:xlink="http://www.w3.org/1999/xlink" x="0px" y="0px"
	 viewBox="0 0 256 292" style="enable-background:new 0 0 256 292;" xml:space="preserve">
<style type="text/css">
	.st0{fill:#EBC17D;}
	.st1{fill:#252D54;}
	.st2{fill:#D6A967;}
	.st3{fill:#D19D5A;}
</style>
<g>
	<g>
		<path class="st0" d="M123.4,288.2c4.2,2.4,9.3,2.4,13.5,0l111.7-64.5c4.2-2.4,6.7-6.9,6.7-11.7V83c0-4.8-2.6-9.3-6.7-11.7
			L136.9,6.8c-4.2-2.4-9.3-2.4-13.5,0L11.7,71.3C7.6,73.7,5,78.2,5,83v129c0,4.8,2.6,9.3,6.7,11.7L123.4,288.2"/>
	</g>
	<path class="st1" d="M118.4,284.2c4.2,2.4,9.3,2.4,13.5,0l111.7-64.5c4.2-2.4,6.7-6.9,6.7-11.7V79c0-4.8-2.6-9.3-6.7-11.7
		L131.9,2.8c-4.2-2.4-9.3-2.4-13.5,0L6.7,67.3C2.6,69.7,0,74.2,0,79v129c0,4.8,2.6,9.3,6.7,11.7L118.4,284.2"/>
</g>
<g>
	<path class="st0" d="M-245.7-32.5l0.7-1l34.5-65.5l0.1-0.7l-15.2-28.6c-1.3-2.4-4.9-1.8-5.3,0.9L-245.7-32.5z"/>
	<g>
		<g>
			<path id="path-1" class="st2" d="M-245.3-33.2l0.6-1.1l34.2-64.8l-15.2-28.7c-1.3-2.4-4.5-1.8-4.9,0.9L-245.3-33.2z"/>
		</g>
		<g>
			<path id="path-1_10_" class="st2" d="M-245.3-33.2l0.6-1.1l34.2-64.8l-15.2-28.7c-1.3-2.4-4.5-1.8-4.9,0.9L-245.3-33.2z"/>
		</g>
	</g>
	<path class="st0" d="M-199.3-78.1l11.3-11.6l-11.3-21.6c-1.1-2-4.1-2.1-5.1,0l-6.1,11.6v1L-199.3-78.1z"/>
	<g>
		<g>
			<path id="path-3" class="st2" d="M-199.5-78.6l11-11.3l-11-21c-1-2-3.6-2.2-4.6-0.2l-6.1,11.7l-0.2,0.6L-199.5-78.6z"/>
		</g>
		<g>
			<path id="path-3_10_" class="st2" d="M-199.5-78.6l11-11.3l-11-21c-1-2-3.6-2.2-4.6-0.2l-6.1,11.7l-0.2,0.6L-199.5-78.6z"/>
		</g>
	</g>
	<polygon class="st3" points="-245.7,-32.5 -245.4,-32.8 -244.2,-33.3 -200,-77.3 -199.4,-78.8 -210.5,-99.8 	"/>
	<path class="st0" d="M-197.9-10.3l40-22.3l-11.4-70.3c-0.4-2.2-3.1-3.1-4.6-1.5l-71.8,71.9l39.8,22.2
		C-203.5-8.9-200.4-8.9-197.9-10.3"/>
	<path class="st0" d="M-158.2-32.7l-11.3-69.8c-0.4-2.2-2.6-3.1-4.2-1.5l-71.5,71.5l39.3,22c2.5,1.4,5.5,1.4,8,0L-158.2-32.7z"/>
	<path class="st0" d="M-197.9-10.9c-2.5,1.4-5.6,1.4-8.1,0l-39.4-21.9l-0.3,0.3l39.8,22.2c2.5,1.4,5.6,1.4,8.1,0l40-22.3l-0.1-0.6
		L-197.9-10.9z"/>
</g>
<g>
	<path class="st2" d="M142.6,211.1h1.6l26.8-13.4l0.4-0.6V90l-0.4-0.6l-26.8-13.4h-1.7L142.6,211.1"/>
	<path class="st2" d="M107.7,211.1h-1.7l-26.8-13.4l-0.5-0.9L78.5,90.5l0.8-1.2l26.8-13.4h1.7L107.7,211.1"/>
	<path class="st0" d="M106.1,75.9h38.1v135.1h-38.1V75.9z"/>
	<path class="st3" d="M185.1,140.5l-0.9-0.2l-12.9-1.2l-0.2,0.1l-26.8-1.1h-38.1l-26.8,1.1v-20.5l0,0l0-0.1l26.8-6.2h38.1l26.8,6.2
		l9.9,5.2v-3.4l4.2-0.5l-0.4-0.8l-13.2-9.4l-0.4,0.1l-26.8-8.3h-38.1l-26.8,8.3V89.3l-14,16.4v14.4l0.1-0.1l4.1,0.4v3.4l-4.2,2.2
		v14.3l0.1,0l4.1,0.1v6l-3.5,0.1l-0.7-0.1v14.3l4.2,2.2v3.5l-4,0.4l-0.2-0.1v14.4l14,16.4v-20.6l26.8,8.3h38.1l26.9-8.3l0.4,0.2
		l13-9.3l0.6-0.9l-4.2-0.5v-3.4l-0.5-0.2l-8.9,4.8l-0.3,0.7l-26.9,6.2v0h-38.1v0l-26.8-6.2v-20.5l26.8,1.1v0h38.1l26.8-1.1l0.6,0.3
		l12.5-1.1l0.9-0.4l-4.2-0.1v-6L185.1,140.5"/>
	<path class="st0" d="M171.1,177.1v20.6l14-16.4v-14.3L171.1,177.1L171.1,177.1"/>
	<path class="st0" d="M171.1,168.4L171.1,168.4l14-7.5v-14.4l-14,1.3V168.4"/>
	<path class="st0" d="M171.2,118.7L171.2,118.7l-0.1,20.5l14,1.3v-14.3L171.2,118.7"/>
	<path class="st0" d="M171.2,110l14,10.1v-14.3l-14-16.4L171.2,110L171.2,110L171.2,110"/>
</g>
</svg>
