<?xml version="1.0" encoding="utf-8"?>
<!-- Generator: Adobe Illustrator 21.1.0, SVG Export Plug-In . SVG Version: 6.00 Build 0)  -->
<svg version="1.1" id="Layer_1" xmlns="http://www.w3.org/2000/svg" xmlns:xlink="http://www.w3.org/1999/xlink" x="0px" y="0px"
	 viewBox="0 0 256 292" style="enable-background:new 0 0 256 292;" xml:space="preserve">
<style type="text/css">
	.st0{fill:#EBC17D;}
	.st1{fill:#252D54;}
	.st2{fill:#D6A967;}
	.st3{fill:#D19D5A;}
</style>
<g>
	<g>
		<path class="st0" d="M123.4,288.2c4.2,2.4,9.3,2.4,13.5,0l111.7-64.5c4.2-2.4,6.7-6.9,6.7-11.7V83c0-4.8-2.6-9.3-6.7-11.7
			L136.9,6.8c-4.2-2.4-9.3-2.4-13.5,0L11.7,71.3C7.6,73.7,5,78.2,5,83v129c0,4.8,2.6,9.3,6.7,11.7L123.4,288.2"/>
	</g>
	<path class="st1" d="M118.4,284.2c4.2,2.4,9.3,2.4,13.5,0l111.7-64.5c4.2-2.4,6.7-6.9,6.7-11.7V79c0-4.8-2.6-9.3-6.7-11.7
		L131.9,2.8c-4.2-2.4-9.3-2.4-13.5,0L6.7,67.3C2.6,69.7,0,74.2,0,79v129c0,4.8,2.6,9.3,6.7,11.7L118.4,284.2"/>
</g>
<g>
	<path class="st0" d="M-245.7-32.5l0.7-1l34.5-65.5l0.1-0.7l-15.2-28.6c-1.3-2.4-4.9-1.8-5.3,0.9L-245.7-32.5z"/>
	<g>
		<g>
			<path id="path-1" class="st2" d="M-245.3-33.2l0.6-1.1l34.2-64.8l-15.2-28.7c-1.3-2.4-4.5-1.8-4.9,0.9L-245.3-33.2z"/>
		</g>
		<g>
			<path id="path-1_10_" class="st2" d="M-245.3-33.2l0.6-1.1l34.2-64.8l-15.2-28.7c-1.3-2.4-4.5-1.8-4.9,0.9L-245.3-33.2z"/>
		</g>
	</g>
	<path class="st0" d="M-199.3-78.1l11.3-11.6l-11.3-21.6c-1.1-2-4.1-2.1-5.1,0l-6.1,11.6v1L-199.3-78.1z"/>
	<g>
		<g>
			<path id="path-3" class="st2" d="M-199.5-78.6l11-11.3l-11-21c-1-2-3.6-2.2-4.6-0.2l-6.1,11.7l-0.2,0.6L-199.5-78.6z"/>
		</g>
		<g>
			<path id="path-3_10_" class="st2" d="M-199.5-78.6l11-11.3l-11-21c-1-2-3.6-2.2-4.6-0.2l-6.1,11.7l-0.2,0.6L-199.5-78.6z"/>
		</g>
	</g>
	<polygon class="st3" points="-245.7,-32.5 -245.4,-32.8 -244.2,-33.3 -200,-77.3 -199.4,-78.8 -210.5,-99.8 	"/>
	<path class="st0" d="M-197.9-10.3l40-22.3l-11.4-70.3c-0.4-2.2-3.1-3.1-4.6-1.5l-71.8,71.9l39.8,22.2
		C-203.5-8.9-200.4-8.9-197.9-10.3"/>
	<path class="st0" d="M-158.2-32.7l-11.3-69.8c-0.4-2.2-2.6-3.1-4.2-1.5l-71.5,71.5l39.3,22c2.5,1.4,5.5,1.4,8,0L-158.2-32.7z"/>
	<path class="st0" d="M-197.9-10.9c-2.5,1.4-5.6,1.4-8.1,0l-39.4-21.9l-0.3,0.3l39.8,22.2c2.5,1.4,5.6,1.4,8.1,0l40-22.3l-0.1-0.6
		L-197.9-10.9z"/>
</g>
<g>
	<path class="st0" d="M86.8,184L73.4,187V99.9l13.5,3.1V184"/>
	<path class="st0" d="M103.6,189.1l-16.8,4.8V93.1l16.8,4.8V189.1"/>
	<path class="st0" d="M125.2,194.4l-21.5,7.9V84.7l21.5,7.9V194.4"/>
	<path class="st0" d="M182.8,184.2L125.2,213V74l57.6,28.8V184.2"/>
	<path class="st2" d="M113.7,79.7l11.5-5.7V213l-11.5-5.7V79.7"/>
	<path class="st2" d="M94.7,89.2l8.9-4.4v117.6l-8.9-4.4V89.2"/>
	<path class="st2" d="M79.7,96.7l7.1-3.5v100.8l-7.1-3.5V96.7"/>
	<path class="st2" d="M73.4,99.9l-5.8,2.9v81.5l5.8,2.9V99.9"/>
</g>
</svg>
