<?xml version="1.0" encoding="utf-8"?>
<!-- Generator: Adobe Illustrator 21.1.0, SVG Export Plug-In . SVG Version: 6.00 Build 0)  -->
<svg version="1.1" id="Layer_1" xmlns="http://www.w3.org/2000/svg" xmlns:xlink="http://www.w3.org/1999/xlink" x="0px" y="0px"
	 viewBox="0 0 256 292" style="enable-background:new 0 0 256 292;" xml:space="preserve">
<style type="text/css">
	.st0{fill:#EBC17D;}
	.st1{fill:#252D54;}
</style>
<g>
	<g>
		<path class="st0" d="M123.4,288.2c4.2,2.4,9.3,2.4,13.5,0l111.7-64.5c4.2-2.4,6.7-6.9,6.7-11.7V83c0-4.8-2.6-9.3-6.7-11.7
			L136.9,6.8c-4.2-2.4-9.3-2.4-13.5,0L11.7,71.3C7.6,73.7,5,78.2,5,83v129c0,4.8,2.6,9.3,6.7,11.7L123.4,288.2"/>
	</g>
	<path class="st1" d="M118.4,284.2c4.2,2.4,9.3,2.4,13.5,0l111.7-64.5c4.2-2.4,6.7-6.9,6.7-11.7V79c0-4.8-2.6-9.3-6.7-11.7
		L131.9,2.8c-4.2-2.4-9.3-2.4-13.5,0L6.7,67.3C2.6,69.7,0,74.2,0,79v129c0,4.8,2.6,9.3,6.7,11.7L118.4,284.2"/>
</g>
<path class="st0" d="M46.9,125.2h12.2v12.1h11.2v-12.1h12.2v36.6H70.3v-12.2H59.1v12.2H46.9L46.9,125.2L46.9,125.2L46.9,125.2z"/>
<path class="st0" d="M98.5,137.3H87.8v-12.1h33.7v12.1h-10.8v24.4H98.5L98.5,137.3L98.5,137.3L98.5,137.3z"/>
<path class="st0" d="M126.9,125.2h12.7l7.8,12.8l7.8-12.8H168v36.6h-12.2v-18.1l-8.4,13h-0.2l-8.4-13v18.1h-12V125.2L126.9,125.2z"
	/>
<path class="st0" d="M174.1,125.2h12.2v24.5h17.2v12.1h-29.4V125.2L174.1,125.2z"/>
</svg>
