<?xml version="1.0" encoding="utf-8"?>
<!-- Generator: Adobe Illustrator 21.1.0, SVG Export Plug-In . SVG Version: 6.00 Build 0)  -->
<svg version="1.1" id="Layer_1" xmlns="http://www.w3.org/2000/svg" xmlns:xlink="http://www.w3.org/1999/xlink" x="0px" y="0px"
	 viewBox="0 0 256 292" style="enable-background:new 0 0 256 292;" xml:space="preserve">
<style type="text/css">
	.st0{fill:#EBC17D;}
	.st1{fill:#252D54;}
	.st2{fill:#D6A967;}
	.st3{fill:#D19D5A;}
	.st4{fill:#FBBF93;}
</style>
<g>
	<g>
		<path class="st0" d="M123.4,288.2c4.2,2.4,9.3,2.4,13.5,0l111.7-64.5c4.2-2.4,6.7-6.9,6.7-11.7V83c0-4.8-2.6-9.3-6.7-11.7
			L136.9,6.8c-4.2-2.4-9.3-2.4-13.5,0L11.7,71.3C7.6,73.7,5,78.2,5,83v129c0,4.8,2.6,9.3,6.7,11.7L123.4,288.2"/>
	</g>
	<path class="st1" d="M118.4,284.2c4.2,2.4,9.3,2.4,13.5,0l111.7-64.5c4.2-2.4,6.7-6.9,6.7-11.7V79c0-4.8-2.6-9.3-6.7-11.7
		L131.9,2.8c-4.2-2.4-9.3-2.4-13.5,0L6.7,67.3C2.6,69.7,0,74.2,0,79v129c0,4.8,2.6,9.3,6.7,11.7L118.4,284.2"/>
</g>
<g>
	<path class="st0" d="M-245.7-32.5l0.7-1l34.5-65.5l0.1-0.7l-15.2-28.6c-1.3-2.4-4.9-1.8-5.3,0.9L-245.7-32.5z"/>
	<g>
		<g>
			<path id="path-1" class="st2" d="M-245.3-33.2l0.6-1.1l34.2-64.8l-15.2-28.7c-1.3-2.4-4.5-1.8-4.9,0.9L-245.3-33.2z"/>
		</g>
		<g>
			<path id="path-1_10_" class="st2" d="M-245.3-33.2l0.6-1.1l34.2-64.8l-15.2-28.7c-1.3-2.4-4.5-1.8-4.9,0.9L-245.3-33.2z"/>
		</g>
	</g>
	<path class="st0" d="M-199.3-78.1l11.3-11.6l-11.3-21.6c-1.1-2-4.1-2.1-5.1,0l-6.1,11.6v1L-199.3-78.1z"/>
	<g>
		<g>
			<path id="path-3" class="st2" d="M-199.5-78.6l11-11.3l-11-21c-1-2-3.6-2.2-4.6-0.2l-6.1,11.7l-0.2,0.6L-199.5-78.6z"/>
		</g>
		<g>
			<path id="path-3_10_" class="st2" d="M-199.5-78.6l11-11.3l-11-21c-1-2-3.6-2.2-4.6-0.2l-6.1,11.7l-0.2,0.6L-199.5-78.6z"/>
		</g>
	</g>
	<polygon class="st3" points="-245.7,-32.5 -245.4,-32.8 -244.2,-33.3 -200,-77.3 -199.4,-78.8 -210.5,-99.8 	"/>
	<path class="st0" d="M-197.9-10.3l40-22.3l-11.4-70.3c-0.4-2.2-3.1-3.1-4.6-1.5l-71.8,71.9l39.8,22.2
		C-203.5-8.9-200.4-8.9-197.9-10.3"/>
	<path class="st0" d="M-158.2-32.7l-11.3-69.8c-0.4-2.2-2.6-3.1-4.2-1.5l-71.5,71.5l39.3,22c2.5,1.4,5.5,1.4,8,0L-158.2-32.7z"/>
	<path class="st0" d="M-197.9-10.9c-2.5,1.4-5.6,1.4-8.1,0l-39.4-21.9l-0.3,0.3l39.8,22.2c2.5,1.4,5.6,1.4,8.1,0l40-22.3l-0.1-0.6
		L-197.9-10.9z"/>
</g>
<g>
	<path class="st2" d="M67.6,184.3l7.3,3.7l1.2-2.1v-85.2L74.9,99l-7.3,3.7V184.3"/>
	<path class="st0" d="M89,102.5L74.9,99V188l14.1-3.3V102.5"/>
	<path class="st3" d="M132.3,109.3l10.1-5.2l33.4,13l-8.9,1.2L132.3,109.3"/>
	<path class="st4" d="M132.7,177.7l9.9,5.2l33.4-13l-8.9-1.2L132.7,177.7"/>
	<path class="st2" d="M135.2,163.4l17.6,2.3l1-1.8v-40.5l-1-2.1l-17.6,2.3V163.4"/>
	<path class="st2" d="M83.6,94.6l10.8-5.4l1.2,2.3v104l-1.2,2.4l-10.8-5.4V94.6"/>
	<path class="st0" d="M116.5,190.5l-22,7.2V89.2l22,7.2V190.5"/>
	<path class="st2" d="M108,204.4l17.2,8.7l1.8-2.1V76.5l-1.8-2.6L108,82.6V204.4"/>
	<path class="st2" d="M166.6,118.2l8.9-1.2l0.8,1.1v50.7l-0.8,1.3l-8.9-1.2V118.2"/>
	<path class="st0" d="M152.8,121.3v44.7l18.4-22.4L152.8,121.3"/>
	<path class="st0" d="M175.5,99l-50.3-25.1v139.2l57.6-28.8v-81.6L175.5,99L175.5,99z M175.5,170.2l-33.1,9.9v-73.2l33.1,9.9V170.2
		L175.5,170.2z"/>
</g>
</svg>
