<?xml version="1.0" encoding="utf-8"?>
<!-- Generator: Adobe Illustrator 21.1.0, SVG Export Plug-In . SVG Version: 6.00 Build 0)  -->
<svg version="1.1" id="Layer_1" xmlns="http://www.w3.org/2000/svg" xmlns:xlink="http://www.w3.org/1999/xlink" x="0px" y="0px"
	 viewBox="0 0 256 292" style="enable-background:new 0 0 256 292;" xml:space="preserve">
<style type="text/css">
	.st0{fill:#EBC17D;}
	.st1{fill:#252D54;}
</style>
<g>
	<g>
		<path class="st0" d="M123.4,288.2c4.2,2.4,9.3,2.4,13.5,0l111.7-64.5c4.2-2.4,6.7-6.9,6.7-11.7V83c0-4.8-2.6-9.3-6.7-11.7
			L136.9,6.8c-4.2-2.4-9.3-2.4-13.5,0L11.7,71.3C7.6,73.7,5,78.2,5,83v129c0,4.8,2.6,9.3,6.7,11.7L123.4,288.2"/>
	</g>
	<path class="st1" d="M118.4,284.2c4.2,2.4,9.3,2.4,13.5,0l111.7-64.5c4.2-2.4,6.7-6.9,6.7-11.7V79c0-4.8-2.6-9.3-6.7-11.7
		L131.9,2.8c-4.2-2.4-9.3-2.4-13.5,0L6.7,67.3C2.6,69.7,0,74.2,0,79v129c0,4.8,2.6,9.3,6.7,11.7L118.4,284.2"/>
	<g>
		<path class="st0" d="M169.4,122c-1.4-0.5-2.9-1-4.4-1.4c0.2-1,0.5-2,0.7-3c3.3-16.2,1.2-29.3-6.3-33.6
			c-7.2-4.1-18.9,0.2-30.7,10.5c-1.1,1-2.3,2-3.4,3.1c-0.8-0.7-1.5-1.4-2.3-2.1c-12.4-11-24.8-15.6-32.3-11.3
			c-7.2,4.1-9.3,16.4-6.3,31.8c0.3,1.5,0.6,3,1,4.5c-1.8,0.5-3.5,1-5.1,1.6c-14.5,5.1-23.8,13-23.8,21.3c0,8.5,10,17,25.1,22.2
			c1.2,0.4,2.4,0.8,3.7,1.2c-0.4,1.7-0.8,3.3-1.1,4.9c-2.9,15.1-0.6,27.1,6.5,31.3c7.4,4.3,19.7-0.1,31.8-10.6
			c1-0.8,1.9-1.7,2.9-2.6c1.2,1.2,2.5,2.3,3.7,3.4c11.7,10,23.2,14.1,30.3,10c7.4-4.3,9.8-17.2,6.7-32.9c-0.2-1.2-0.5-2.4-0.8-3.7
			c0.9-0.3,1.7-0.5,2.6-0.8c15.7-5.2,26-13.6,26-22.3C193.8,135.1,184.3,127.1,169.4,122L169.4,122z M166,160.1
			c-0.8,0.2-1.5,0.5-2.3,0.7c-1.7-5.5-4.1-11.4-7-17.4c2.7-5.9,5-11.7,6.7-17.1c1.4,0.4,2.8,0.8,4.1,1.3
			c12.7,4.4,20.5,10.8,20.5,15.8C188,148.7,179.6,155.6,166,160.1L166,160.1z M160.4,171.3c1.4,6.9,1.6,13.2,0.7,18.1
			c-0.8,4.4-2.5,7.3-4.5,8.5c-4.3,2.5-13.6-0.8-23.6-9.3c-1.1-1-2.3-2-3.5-3.1c3.9-4.2,7.7-9.2,11.5-14.6c6.6-0.6,12.9-1.6,18.6-2.9
			C159.9,169.1,160.2,170.2,160.4,171.3L160.4,171.3z M103.4,197.5c-4.2,1.5-7.6,1.5-9.6,0.4c-4.3-2.5-6.1-12.1-3.7-25.1
			c0.3-1.5,0.6-3,1-4.6c5.6,1.2,11.9,2.1,18.5,2.7c3.8,5.3,7.8,10.3,11.8,14.6c-0.9,0.8-1.7,1.7-2.6,2.4
			C113.4,192.5,108.1,195.8,103.4,197.5L103.4,197.5z M83.5,160.1c-6.7-2.3-12.2-5.3-16-8.5c-3.4-2.9-5.1-5.8-5.1-8.2
			c0-5,7.5-11.4,19.9-15.7c1.5-0.5,3.1-1,4.7-1.5c1.7,5.6,4,11.4,6.7,17.3c-2.8,6-5,11.9-6.8,17.6C85.8,160.8,84.6,160.4,83.5,160.1
			L83.5,160.1z M90.2,114.9c-2.6-13.2-0.9-23.1,3.4-25.6c4.6-2.7,14.8,1.1,25.5,10.6c0.7,0.6,1.4,1.2,2.1,1.9
			c-4,4.3-7.9,9.2-11.7,14.5c-6.5,0.6-12.6,1.6-18.3,2.8C90.8,117.7,90.5,116.2,90.2,114.9L90.2,114.9z M149.4,129.5
			c-1.4-2.3-2.8-4.6-4.2-6.9c4.4,0.6,8.6,1.3,12.5,2.2c-1.2,3.8-2.7,7.8-4.4,11.8C152.1,134.3,150.8,131.9,149.4,129.5L149.4,129.5z
			 M125.3,106c2.7,2.9,5.4,6.2,8.1,9.8c-2.7-0.1-5.4-0.2-8.1-0.2c-2.7,0-5.4,0.1-8.1,0.2C119.8,112.2,122.5,108.9,125.3,106
			L125.3,106z M101,129.5c-1.4,2.4-2.7,4.7-3.9,7.1c-1.7-4.1-3.2-8-4.4-11.9c3.9-0.9,8.1-1.6,12.4-2.1
			C103.7,124.9,102.3,127.2,101,129.5L101,129.5L101,129.5z M105.3,164.6c-4.5-0.5-8.7-1.2-12.7-2c1.2-3.9,2.7-8,4.5-12.1
			c1.2,2.4,2.5,4.7,3.9,7.1h0C102.4,159.9,103.8,162.3,105.3,164.6L105.3,164.6z M125.4,181.2c-2.8-3-5.6-6.3-8.3-9.9
			c2.6,0.1,5.3,0.2,8,0.2c2.8,0,5.6-0.1,8.3-0.2C130.8,174.9,128.1,178.3,125.4,181.2L125.4,181.2z M153.4,150.2
			c1.8,4.2,3.4,8.2,4.6,12.1c-4,0.9-8.3,1.6-12.8,2.2c1.4-2.3,2.8-4.6,4.2-7C150.8,155.1,152.2,152.6,153.4,150.2L153.4,150.2z
			 M144.4,154.6c-2.1,3.7-4.3,7.3-6.6,10.6c-4.1,0.3-8.3,0.4-12.6,0.4c-4.3,0-8.4-0.1-12.4-0.4c-2.3-3.4-4.6-7-6.7-10.6h0
			c-2.1-3.7-4.1-7.4-5.9-11.1c1.8-3.7,3.7-7.4,5.8-11.1l0,0c2.1-3.7,4.4-7.2,6.7-10.6c4.1-0.3,8.3-0.5,12.5-0.5h0
			c4.3,0,8.4,0.2,12.5,0.5c2.3,3.4,4.5,6.9,6.6,10.6c2.2,3.7,4.1,7.4,5.9,11C148.5,147.1,146.5,150.8,144.4,154.6L144.4,154.6z
			 M156.5,89.1c4.6,2.7,6.4,13.3,3.5,27.4c-0.2,0.9-0.4,1.8-0.6,2.7c-5.7-1.3-11.9-2.3-18.4-2.9c-3.8-5.4-7.7-10.3-11.6-14.5
			c1.1-1,2.1-2,3.2-2.9C142.7,90,152.1,86.6,156.5,89.1L156.5,89.1z M125.2,131.1c6.8,0,12.3,5.5,12.3,12.3
			c0,6.8-5.5,12.3-12.3,12.3s-12.3-5.5-12.3-12.3C112.9,136.6,118.4,131.1,125.2,131.1L125.2,131.1z"/>
	</g>
</g>
</svg>
