<?xml version="1.0" encoding="utf-8"?>
<!-- Generator: Adobe Illustrator 21.1.0, SVG Export Plug-In . SVG Version: 6.00 Build 0)  -->
<svg version="1.1" id="Layer_1" xmlns="http://www.w3.org/2000/svg" xmlns:xlink="http://www.w3.org/1999/xlink" x="0px" y="0px"
	 viewBox="0 0 256 292" style="enable-background:new 0 0 256 292;" xml:space="preserve">
<style type="text/css">
	.st0{fill:#EBC17D;}
	.st1{fill:#252D54;}
	.st2{fill:#D6A967;}
	.st3{fill:#D19D5A;}
</style>
<g>
	<g>
		<path class="st0" d="M123.4,288.2c4.2,2.4,9.3,2.4,13.5,0l111.7-64.5c4.2-2.4,6.7-6.9,6.7-11.7V83c0-4.8-2.6-9.3-6.7-11.7
			L136.9,6.8c-4.2-2.4-9.3-2.4-13.5,0L11.7,71.3C7.6,73.7,5,78.2,5,83v129c0,4.8,2.6,9.3,6.7,11.7L123.4,288.2"/>
	</g>
	<path class="st1" d="M118.4,284.2c4.2,2.4,9.3,2.4,13.5,0l111.7-64.5c4.2-2.4,6.7-6.9,6.7-11.7V79c0-4.8-2.6-9.3-6.7-11.7
		L131.9,2.8c-4.2-2.4-9.3-2.4-13.5,0L6.7,67.3C2.6,69.7,0,74.2,0,79v129c0,4.8,2.6,9.3,6.7,11.7L118.4,284.2"/>
</g>
<g>
	<path class="st0" d="M-245.7-32.5l0.7-1l34.5-65.5l0.1-0.7l-15.2-28.6c-1.3-2.4-4.9-1.8-5.3,0.9L-245.7-32.5z"/>
	<g>
		<g>
			<path id="path-1" class="st2" d="M-245.3-33.2l0.6-1.1l34.2-64.8l-15.2-28.7c-1.3-2.4-4.5-1.8-4.9,0.9L-245.3-33.2z"/>
		</g>
		<g>
			<path id="path-1_10_" class="st2" d="M-245.3-33.2l0.6-1.1l34.2-64.8l-15.2-28.7c-1.3-2.4-4.5-1.8-4.9,0.9L-245.3-33.2z"/>
		</g>
	</g>
	<path class="st0" d="M-199.3-78.1l11.3-11.6l-11.3-21.6c-1.1-2-4.1-2.1-5.1,0l-6.1,11.6v1L-199.3-78.1z"/>
	<g>
		<g>
			<path id="path-3" class="st2" d="M-199.5-78.6l11-11.3l-11-21c-1-2-3.6-2.2-4.6-0.2l-6.1,11.7l-0.2,0.6L-199.5-78.6z"/>
		</g>
		<g>
			<path id="path-3_10_" class="st2" d="M-199.5-78.6l11-11.3l-11-21c-1-2-3.6-2.2-4.6-0.2l-6.1,11.7l-0.2,0.6L-199.5-78.6z"/>
		</g>
	</g>
	<polygon class="st3" points="-245.7,-32.5 -245.4,-32.8 -244.2,-33.3 -200,-77.3 -199.4,-78.8 -210.5,-99.8 	"/>
	<path class="st0" d="M-197.9-10.3l40-22.3l-11.4-70.3c-0.4-2.2-3.1-3.1-4.6-1.5l-71.8,71.9l39.8,22.2
		C-203.5-8.9-200.4-8.9-197.9-10.3"/>
	<path class="st0" d="M-158.2-32.7l-11.3-69.8c-0.4-2.2-2.6-3.1-4.2-1.5l-71.5,71.5l39.3,22c2.5,1.4,5.5,1.4,8,0L-158.2-32.7z"/>
	<path class="st0" d="M-197.9-10.9c-2.5,1.4-5.6,1.4-8.1,0l-39.4-21.9l-0.3,0.3l39.8,22.2c2.5,1.4,5.6,1.4,8.1,0l40-22.3l-0.1-0.6
		L-197.9-10.9z"/>
</g>
<g>
	<path class="st0" d="M178.2,155c-4.6,0-8.7,1.1-12,2.8c-1.2-2.5-2.5-4.6-2.7-6.2c-0.2-1.9-0.5-3-0.2-5.2s1.6-5.4,1.6-5.7
		c0-0.2-0.3-1.4-3-1.4c-2.7,0-5,0.5-5.2,1.2c-0.3,0.7-0.8,2.3-1.1,4c-0.5,2.4-5.3,11.1-8.1,15.6c-0.9-1.8-1.7-3.3-1.8-4.6
		c-0.2-1.9-0.5-3-0.2-5.2c0.3-2.2,1.6-5.4,1.6-5.7s-0.3-1.4-3-1.4c-2.7,0-5,0.5-5.2,1.2c-0.3,0.7-0.6,2.4-1.1,4s-7,16.1-8.7,19.8
		c-0.9,1.9-1.6,3.4-2.2,4.5l0,0c0,0,0,0.1-0.1,0.2c-0.5,0.9-0.7,1.4-0.7,1.4s0,0,0,0c-0.4,0.7-0.8,1.3-0.9,1.3c-0.1,0-0.4-1.7,0-4.1
		c1-5,3.3-12.8,3.3-13.1c0-0.1,0.4-1.5-1.5-2.2c-1.9-0.7-2.6,0.5-2.7,0.5c-0.2,0-0.3,0.4-0.3,0.4s2.1-8.8-4-8.8
		c-3.8,0-9.1,4.2-11.8,8c-1.7,0.9-5.2,2.8-8.9,4.9c-1.4,0.8-2.9,1.6-4.3,2.4c-0.1-0.1-0.2-0.2-0.3-0.3c-7.4-7.9-21.2-13.5-20.6-24.2
		c0.2-3.9,1.6-14.1,26.4-26.5c20.4-10.1,36.7-7.3,39.5-1.1c4,8.8-8.7,25.3-29.8,27.6c-8.1,0.9-12.3-2.2-13.4-3.4
		c-1.1-1.2-1.3-1.3-1.7-1c-0.7,0.4-0.2,1.5,0,2.1c0.6,1.7,3.2,4.6,7.6,6c3.9,1.3,13.3,2,24.8-2.5c12.8-5,22.8-18.7,19.9-30.3
		c-2.9-11.7-22.4-15.6-40.7-9c-10.9,3.9-22.8,10-31.3,18c-10.1,9.5-11.7,17.7-11.1,21.2c2.4,12.2,19.2,20.2,26,26.1
		c-0.3,0.2-0.7,0.4-0.9,0.5c-3.4,1.7-16.2,8.4-19.5,15.5c-3.6,8.1,0.6,13.8,3.4,14.6c8.7,2.4,17.6-1.9,22.4-9.1
		c4.8-7.1,4.2-16.4,2-20.7c0,0,0-0.1-0.1-0.1c0.9-0.5,1.8-1,2.6-1.6c1.7-1,3.4-2,4.9-2.7c-0.8,2.3-1.4,5-1.7,8.8
		c-0.4,4.6,1.5,10.5,4,12.8c1.1,1,2.4,1,3.2,1c2.9,0,4.2-2.4,5.6-5.2c1.7-3.4,3.3-7.5,3.3-7.5s-2,10.8,3.4,10.8
		c1.9,0,3.9-2.5,4.8-3.8v0c0,0,0-0.1,0.1-0.2c0.2-0.3,0.3-0.5,0.3-0.5v0c0.8-1.4,2.5-4.4,5.1-9.6c3.4-6.6,6.6-14.9,6.6-14.9
		s0.3,2,1.3,5.4c0.6,2,1.8,4.1,2.8,6.2c-0.8,1.1-1.3,1.7-1.3,1.7s0,0,0,0c-0.6,0.8-1.3,1.7-2.1,2.6c-2.6,3.2-5.8,6.8-6.2,7.8
		c-0.5,1.2-0.4,2.1,0.6,2.9c0.7,0.5,2,0.6,3.3,0.5c2.4-0.2,4.1-0.8,4.9-1.1c1.3-0.5,2.8-1.2,4.2-2.2c2.6-1.9,4.2-4.7,4-8.3
		c-0.1-2-0.7-4-1.5-5.9c0.2-0.3,0.5-0.7,0.7-1c4.1-6,7.3-12.6,7.3-12.6s0.3,2,1.3,5.4c0.5,1.7,1.5,3.5,2.4,5.3
		c-3.9,3.1-6.2,6.8-7.1,9.2c-1.5,4.4-0.3,6.4,1.9,6.9c1,0.2,2.5-0.3,3.5-0.7c1.4-0.4,3-1.2,4.5-2.3c2.6-1.9,5.1-4.6,5-8.2
		c-0.1-1.7-0.5-3.3-1.1-4.9c3.3-1.4,7.5-2.1,12.9-1.5c11.6,1.4,13.8,8.6,13.4,11.6c-0.4,3-2.9,4.7-3.7,5.2c-0.8,0.5-1.1,0.7-1,1
		c0.1,0.5,0.5,0.5,1.2,0.4c0.9-0.2,6.1-2.5,6.3-8C197,162.7,190.2,154.9,178.2,155L178.2,155z M89,185c-3.8,4.2-9.2,5.8-11.5,4.4
		c-2.5-1.4-1.5-7.6,3.2-12c2.9-2.7,6.6-5.2,9-6.7c0.6-0.3,1.4-0.8,2.4-1.4c0.2-0.1,0.3-0.1,0.3-0.1l0,0c0.2-0.1,0.4-0.2,0.6-0.4
		C94.7,175.1,93.1,180.6,89,185L89,185z M117,166c-1.3,3.3-4.1,11.6-5.8,11.1c-1.5-0.4-2.4-6.7-0.3-12.9c1-3.1,3.3-6.9,4.5-8.3
		c2.1-2.3,4.4-3.1,5-2.2C121,155,117.8,164,117,166L117,166z M140,177.1c-0.6,0.3-1.1,0.5-1.3,0.3c-0.2-0.1,0.2-0.5,0.2-0.5
		s2.9-3.1,4-4.5c0.7-0.8,1.4-1.8,2.3-2.9v0.3C145.2,173.5,141.6,176,140,177.1L140,177.1z M157.8,173c-0.4-0.3-0.3-1.3,1-4.3
		c0.5-1.2,1.8-3.2,4-5.1c0.2,0.8,0.4,1.5,0.4,2.2C163.1,170.5,159.8,172.3,157.8,173L157.8,173z"/>
</g>
</svg>
