<?xml version="1.0" encoding="utf-8"?>
<!-- Generator: Adobe Illustrator 21.1.0, SVG Export Plug-In . SVG Version: 6.00 Build 0)  -->
<svg version="1.1" id="Capa_1" xmlns="http://www.w3.org/2000/svg" xmlns:xlink="http://www.w3.org/1999/xlink" x="0px" y="0px"
	 viewBox="0 0 512 512" style="enable-background:new 0 0 512 512;" xml:space="preserve">
<style type="text/css">
	.st0{fill:none;stroke:#FFFFFF;stroke-width:18;stroke-miterlimit:10;}
</style>
<g>
	<path class="st0" d="M340.6,270.9c-19.1,0-34.6,21.4-34.6,47.9c0,26.5,15.5,47.9,34.6,47.9c19.1,0,34.6-21.4,34.6-47.9
		C375.2,292.3,359.7,270.9,340.6,270.9z M461.1,166.2c3.9-9.7,4.1-65-16.9-117.8c0,0-48.2,5.3-121.2,55.3
		c-15.3-4.2-41.2-6.3-67.1-6.3s-51.8,2.1-67.1,6.3C116,53.7,67.8,48.4,67.8,48.4c-21,52.9-20.8,108.1-16.9,117.8
		c-24.7,26.8-39.8,59-39.8,103c0,191.3,158.7,194.4,198.7,194.4c9.1,0,27.1,0,46.1,0c19,0,37.1,0,46.1,0
		c40.1,0,198.7-3.1,198.7-194.4C500.9,225.2,485.8,193,461.1,166.2z M171.4,270.9c-19.1,0-34.6,21.4-34.6,47.9
		c0,26.5,15.5,47.9,34.6,47.9c19.1,0,34.6-21.4,34.6-47.9C206,292.3,190.5,270.9,171.4,270.9z"/>
</g>
</svg>
