<?xml version="1.0" encoding="utf-8"?>
<!-- Generator: Adobe Illustrator 21.1.0, SVG Export Plug-In . SVG Version: 6.00 Build 0)  -->
<svg version="1.1" xmlns="http://www.w3.org/2000/svg" xmlns:xlink="http://www.w3.org/1999/xlink" x="0px" y="0px"
	 viewBox="0 0 1200 1080" style="enable-background:new 0 0 1200 1080;" xml:space="preserve">
<style type="text/css">
	.st0{opacity:0.35;}
	.st1{fill:url(#SVGID_1_);}
	.st2{fill:url(#SVGID_2_);}
	.st3{fill:url(#SVGID_3_);}
	.st4{fill:url(#SVGID_4_);}
	.st5{fill:url(#SVGID_5_);}
	.st6{fill:url(#SVGID_6_);}
	.st7{fill:url(#SVGID_7_);}
	.st8{fill:url(#SVGID_8_);}
	.st9{fill:url(#SVGID_9_);}
	.st10{fill:url(#SVGID_10_);}
	.st11{fill:url(#SVGID_11_);}
	.st12{fill:url(#SVGID_12_);}
</style>
<g id="Ornament">
	<g class="st0">
		<g>
			<linearGradient id="SVGID_1_" gradientUnits="userSpaceOnUse" x1="0" y1="180" x2="300" y2="180">
				<stop  offset="5.618000e-03" style="stop-color:#EBC17D"/>
				<stop  offset="0.1854" style="stop-color:#DFB77C"/>
				<stop  offset="0.5955" style="stop-color:#C08329"/>
				<stop  offset="0.8708" style="stop-color:#EABE81"/>
				<stop  offset="1" style="stop-color:#EEDCC3"/>
			</linearGradient>
			<path class="st1" d="M275.8,346.3l24.2-14.5l0,0V208.3v0L252.9,180l47.1-28.3v0V28.3v0L252.9,0l0,0h-5.8l0,0L200,28.3L152.9,0
				l0,0h-5.8l0,0L100,28.3L52.9,0l0,0h-5.8l0,0L0,28.3v123.5L47.1,180L0,208.3v123.5l24.2,14.5L47.1,360h5.8l22.8-13.7l24.2-14.5
				l24.2,14.5l22.8,13.7h5.8l22.8-13.7l24.2-14.5l24.2,14.5l22.8,13.7h5.8L275.8,346.3z M298.5,329.2l-24.2,14.6l-22.8,13.6v-56.5
				l47-28.2V329.2z M298.5,210.8v56.5l-22.8-13.6l-24.2-14.6v-56.5L298.5,210.8z M298.5,149.2l-24.2,14.6l-22.8,13.6v-56.5l47-28.2
				V149.2z M251.5,2.6l47,28.2v56.5l-22.8-13.6l-24.2-14.6V2.6z M274.2,76.3L297.1,90L250,118.3L202.9,90l22.8-13.7L250,61.7
				L274.2,76.3z M201.5,30.8l47-28.2v56.5l-24.2,14.6l-22.8,13.6V30.8z M201.5,92.6l47,28.2v56.5l-22.8-13.6l-24.2-14.6V92.6z
				 M151.5,2.6l47,28.2v56.5l-22.8-13.6l-24.2-14.6V2.6z M174.2,76.3L197.1,90L150,118.3L102.9,90l22.8-13.7L150,61.7L174.2,76.3z
				 M198.5,92.6v56.5l-24.2,14.6l-22.8,13.6v-56.5L198.5,92.6z M101.5,30.8l47-28.2v56.5l-24.2,14.6l-22.8,13.6V30.8z M101.5,92.6
				l47,28.2v56.5l-22.8-13.6l-24.2-14.6V92.6z M51.5,2.6l47,28.2v56.5L75.8,73.7L51.5,59.2V2.6z M74.2,76.3L97.1,90L50,118.3L2.9,90
				l22.8-13.7L50,61.7L74.2,76.3z M98.5,92.6v56.5l-24.2,14.6l-22.8,13.6v-56.5L98.5,92.6z M1.5,30.8l47-28.2v56.5L24.2,73.7
				L1.5,87.4V30.8z M25.8,163.7L1.5,149.2V92.6l47,28.2v56.5L25.8,163.7z M1.5,210.8l47-28.2v56.5l-24.2,14.6L1.5,267.4V210.8z
				 M48.5,357.4l-22.8-13.6L1.5,329.2v-56.5l47,28.2V357.4z M2.9,270l22.8-13.7L50,241.7l24.2,14.5L97.1,270L50,298.3L2.9,270z
				 M98.5,329.2l-24.2,14.6l-22.8,13.6v-56.5l47-28.2V329.2z M98.5,267.4l-22.8-13.6l-24.2-14.6v-56.5l47,28.2V267.4z M52.9,180
				l47.1-28.3l47.1,28.3L100,208.3L52.9,180z M148.5,182.6v56.5l-24.2,14.6l-22.8,13.6v-56.5L148.5,182.6z M148.5,357.4l-22.8-13.6
				l-24.2-14.6v-56.5l47,28.2V357.4z M102.9,270l22.8-13.7l24.2-14.5l24.2,14.5l22.8,13.7L150,298.3L102.9,270z M198.5,329.2
				l-24.2,14.6l-22.8,13.6v-56.5l47-28.2V329.2z M198.5,267.4l-22.8-13.6l-24.2-14.6v-56.5l47,28.2V267.4z M152.9,180l47.1-28.3
				l47.1,28.3L200,208.3L152.9,180z M248.5,182.6v56.5l-24.2,14.6l-22.8,13.6v-56.5L248.5,182.6z M248.5,357.4l-22.8-13.6
				l-24.2-14.6v-56.5l47,28.2V357.4z M202.9,270l22.8-13.7l24.2-14.5l24.2,14.5l22.8,13.7L250,298.3L202.9,270z"/>
		</g>
		<g>
			<linearGradient id="SVGID_2_" gradientUnits="userSpaceOnUse" x1="300" y1="180" x2="600" y2="180">
				<stop  offset="5.618000e-03" style="stop-color:#EBC17D"/>
				<stop  offset="0.1854" style="stop-color:#DFB77C"/>
				<stop  offset="0.5955" style="stop-color:#C08329"/>
				<stop  offset="0.8708" style="stop-color:#EABE81"/>
				<stop  offset="1" style="stop-color:#EEDCC3"/>
			</linearGradient>
			<path class="st2" d="M575.8,346.3l24.2-14.5l0,0V208.3v0L552.9,180l47.1-28.3v0V28.3v0L552.9,0l0,0h-5.8l0,0L500,28.3L452.9,0
				l0,0h-5.8l0,0L400,28.3L352.9,0l0,0h-5.8l0,0L300,28.3v123.5l47.1,28.3L300,208.3v123.5l24.2,14.5l22.8,13.7h5.8l22.8-13.7
				l24.2-14.5l24.2,14.5l22.8,13.7h5.8l22.8-13.7l24.2-14.5l24.2,14.5l22.8,13.7h5.8L575.8,346.3z M598.5,329.2l-24.2,14.6
				l-22.8,13.6v-56.5l47-28.2V329.2z M598.5,210.8v56.5l-22.8-13.6l-24.2-14.6v-56.5L598.5,210.8z M598.5,149.2l-24.2,14.6
				l-22.8,13.6v-56.5l47-28.2V149.2z M551.5,2.6l47,28.2v56.5l-22.8-13.6l-24.2-14.6V2.6z M574.2,76.3L597.1,90L550,118.3L502.9,90
				l22.8-13.7L550,61.7L574.2,76.3z M501.5,30.8l47-28.2v56.5l-24.2,14.6l-22.8,13.6V30.8z M501.5,92.6l47,28.2v56.5l-22.8-13.6
				l-24.2-14.6V92.6z M451.5,2.6l47,28.2v56.5l-22.8-13.6l-24.2-14.6V2.6z M474.2,76.3L497.1,90L450,118.3L402.9,90l22.8-13.7
				L450,61.7L474.2,76.3z M498.5,92.6v56.5l-24.2,14.6l-22.8,13.6v-56.5L498.5,92.6z M401.5,30.8l47-28.2v56.5l-24.2,14.6
				l-22.8,13.6V30.8z M401.5,92.6l47,28.2v56.5l-22.8-13.6l-24.2-14.6V92.6z M351.5,2.6l47,28.2v56.5l-22.8-13.6l-24.2-14.6V2.6z
				 M374.2,76.3L397.1,90L350,118.3L302.9,90l22.8-13.7L350,61.7L374.2,76.3z M398.5,92.6v56.5l-24.2,14.6l-22.8,13.6v-56.5
				L398.5,92.6z M301.5,30.8l47-28.2v56.5l-24.2,14.6l-22.8,13.6V30.8z M325.8,163.7l-24.2-14.6V92.6l47,28.2v56.5L325.8,163.7z
				 M301.5,210.8l47-28.2v56.5l-24.2,14.6l-22.8,13.6V210.8z M348.5,357.4l-22.8-13.6l-24.2-14.6v-56.5l47,28.2V357.4z M302.9,270
				l22.8-13.7l24.2-14.5l24.2,14.5l22.8,13.7L350,298.3L302.9,270z M398.5,329.2l-24.2,14.6l-22.8,13.6v-56.5l47-28.2V329.2z
				 M398.5,267.4l-22.8-13.6l-24.2-14.6v-56.5l47,28.2V267.4z M352.9,180l47.1-28.3l47.1,28.3L400,208.3L352.9,180z M448.5,182.6
				v56.5l-24.2,14.6l-22.8,13.6v-56.5L448.5,182.6z M448.5,357.4l-22.8-13.6l-24.2-14.6v-56.5l47,28.2V357.4z M402.9,270l22.8-13.7
				l24.2-14.5l24.2,14.5l22.8,13.7L450,298.3L402.9,270z M498.5,329.2l-24.2,14.6l-22.8,13.6v-56.5l47-28.2V329.2z M498.5,267.4
				l-22.8-13.6l-24.2-14.6v-56.5l47,28.2V267.4z M452.9,180l47.1-28.3l47.1,28.3L500,208.3L452.9,180z M548.5,182.6v56.5l-24.2,14.6
				l-22.8,13.6v-56.5L548.5,182.6z M548.5,357.4l-22.8-13.6l-24.2-14.6v-56.5l47,28.2V357.4z M502.9,270l22.8-13.7l24.2-14.5
				l24.2,14.5l22.8,13.7L550,298.3L502.9,270z"/>
		</g>
		<g>
			<linearGradient id="SVGID_3_" gradientUnits="userSpaceOnUse" x1="600" y1="180" x2="900" y2="180">
				<stop  offset="5.618000e-03" style="stop-color:#EBC17D"/>
				<stop  offset="0.1854" style="stop-color:#DFB77C"/>
				<stop  offset="0.5955" style="stop-color:#C08329"/>
				<stop  offset="0.8708" style="stop-color:#EABE81"/>
				<stop  offset="1" style="stop-color:#EEDCC3"/>
			</linearGradient>
			<path class="st3" d="M875.8,346.3l24.2-14.5l0,0V208.3v0L852.9,180l47.1-28.3v0V28.3v0L852.9,0l0,0h-5.8l0,0L800,28.3L752.9,0
				l0,0h-5.8l0,0L700,28.3L652.9,0l0,0h-5.8l0,0L600,28.3v123.5l47.1,28.3L600,208.3v123.5l24.2,14.5l22.8,13.7h5.8l22.8-13.7
				l24.2-14.5l24.2,14.5l22.8,13.7h5.8l22.8-13.7l24.2-14.5l24.2,14.5l22.8,13.7h5.8L875.8,346.3z M898.5,329.2l-24.2,14.6
				l-22.8,13.6v-56.5l47-28.2V329.2z M898.5,210.8v56.5l-22.8-13.6l-24.2-14.6v-56.5L898.5,210.8z M898.5,149.2l-24.2,14.6
				l-22.8,13.6v-56.5l47-28.2V149.2z M851.5,2.6l47,28.2v56.5l-22.8-13.6l-24.2-14.6V2.6z M874.2,76.3L897.1,90L850,118.3L802.9,90
				l22.8-13.7L850,61.7L874.2,76.3z M801.5,30.8l47-28.2v56.5l-24.2,14.6l-22.8,13.6V30.8z M801.5,92.6l47,28.2v56.5l-22.8-13.6
				l-24.2-14.6V92.6z M751.5,2.6l47,28.2v56.5l-22.8-13.6l-24.2-14.6V2.6z M774.2,76.3L797.1,90L750,118.3L702.9,90l22.8-13.7
				L750,61.7L774.2,76.3z M798.5,92.6v56.5l-24.2,14.6l-22.8,13.6v-56.5L798.5,92.6z M701.5,30.8l47-28.2v56.5l-24.2,14.6
				l-22.8,13.6V30.8z M701.5,92.6l47,28.2v56.5l-22.8-13.6l-24.2-14.6V92.6z M651.5,2.6l47,28.2v56.5l-22.8-13.6l-24.2-14.6V2.6z
				 M674.2,76.3L697.1,90L650,118.3L602.9,90l22.8-13.7L650,61.7L674.2,76.3z M698.5,92.6v56.5l-24.2,14.6l-22.8,13.6v-56.5
				L698.5,92.6z M601.5,30.8l47-28.2v56.5l-24.2,14.6l-22.8,13.6V30.8z M625.8,163.7l-24.2-14.6V92.6l47,28.2v56.5L625.8,163.7z
				 M601.5,210.8l47-28.2v56.5l-24.2,14.6l-22.8,13.6V210.8z M648.5,357.4l-22.8-13.6l-24.2-14.6v-56.5l47,28.2V357.4z M602.9,270
				l22.8-13.7l24.2-14.5l24.2,14.5l22.8,13.7L650,298.3L602.9,270z M698.5,329.2l-24.2,14.6l-22.8,13.6v-56.5l47-28.2V329.2z
				 M698.5,267.4l-22.8-13.6l-24.2-14.6v-56.5l47,28.2V267.4z M652.9,180l47.1-28.3l47.1,28.3L700,208.3L652.9,180z M748.5,182.6
				v56.5l-24.2,14.6l-22.8,13.6v-56.5L748.5,182.6z M748.5,357.4l-22.8-13.6l-24.2-14.6v-56.5l47,28.2V357.4z M702.9,270l22.8-13.7
				l24.2-14.5l24.2,14.5l22.8,13.7L750,298.3L702.9,270z M798.5,329.2l-24.2,14.6l-22.8,13.6v-56.5l47-28.2V329.2z M798.5,267.4
				l-22.8-13.6l-24.2-14.6v-56.5l47,28.2V267.4z M752.9,180l47.1-28.3l47.1,28.3L800,208.3L752.9,180z M848.5,182.6v56.5l-24.2,14.6
				l-22.8,13.6v-56.5L848.5,182.6z M848.5,357.4l-22.8-13.6l-24.2-14.6v-56.5l47,28.2V357.4z M802.9,270l22.8-13.7l24.2-14.5
				l24.2,14.5l22.8,13.7L850,298.3L802.9,270z"/>
		</g>
		<g>
			<linearGradient id="SVGID_4_" gradientUnits="userSpaceOnUse" x1="900" y1="180" x2="1200" y2="180">
				<stop  offset="5.618000e-03" style="stop-color:#EBC17D"/>
				<stop  offset="0.1854" style="stop-color:#DFB77C"/>
				<stop  offset="0.5955" style="stop-color:#C08329"/>
				<stop  offset="0.8708" style="stop-color:#EABE81"/>
				<stop  offset="1" style="stop-color:#EEDCC3"/>
			</linearGradient>
			<path class="st4" d="M1175.8,346.3l24.2-14.5l0,0V208.3v0l-47.1-28.3l47.1-28.3v0V28.3v0L1152.9,0l0,0h-5.8l0,0L1100,28.3
				L1052.9,0l0,0h-5.8l0,0L1000,28.3L952.9,0l0,0h-5.8l0,0L900,28.3v123.5l47.1,28.3L900,208.3v123.5l24.2,14.5l22.8,13.7h5.8
				l22.8-13.7l24.2-14.5l24.2,14.5l22.8,13.7h5.8l22.8-13.7l24.2-14.5l24.2,14.5l22.8,13.7h5.8L1175.8,346.3z M1198.5,329.2
				l-24.2,14.6l-22.8,13.6v-56.5l47-28.2V329.2z M1198.5,210.8v56.5l-22.8-13.6l-24.2-14.6v-56.5L1198.5,210.8z M1198.5,149.2
				l-24.2,14.6l-22.8,13.6v-56.5l47-28.2V149.2z M1151.5,2.6l47,28.2v56.5l-22.8-13.6l-24.2-14.6V2.6z M1174.2,76.3l22.8,13.7
				l-47.1,28.3L1102.9,90l22.8-13.7l24.2-14.5L1174.2,76.3z M1101.5,30.8l47-28.2v56.5l-24.2,14.6l-22.8,13.6V30.8z M1101.5,92.6
				l47,28.2v56.5l-22.8-13.6l-24.2-14.6V92.6z M1051.5,2.6l47,28.2v56.5l-22.8-13.6l-24.2-14.6V2.6z M1074.2,76.3l22.8,13.7
				l-47.1,28.3L1002.9,90l22.8-13.7l24.2-14.5L1074.2,76.3z M1098.5,92.6v56.5l-24.2,14.6l-22.8,13.6v-56.5L1098.5,92.6z
				 M1001.5,30.8l47-28.2v56.5l-24.2,14.6l-22.8,13.6V30.8z M1001.5,92.6l47,28.2v56.5l-22.8-13.6l-24.2-14.6V92.6z M951.5,2.6
				l47,28.2v56.5l-22.8-13.6l-24.2-14.6V2.6z M974.2,76.3L997.1,90L950,118.3L902.9,90l22.8-13.7L950,61.7L974.2,76.3z M998.5,92.6
				v56.5l-24.2,14.6l-22.8,13.6v-56.5L998.5,92.6z M901.5,30.8l47-28.2v56.5l-24.2,14.6l-22.8,13.6V30.8z M925.8,163.7l-24.2-14.6
				V92.6l47,28.2v56.5L925.8,163.7z M901.5,210.8l47-28.2v56.5l-24.2,14.6l-22.8,13.6V210.8z M948.5,357.4l-22.8-13.6l-24.2-14.6
				v-56.5l47,28.2V357.4z M902.9,270l22.8-13.7l24.2-14.5l24.2,14.5l22.8,13.7L950,298.3L902.9,270z M998.5,329.2l-24.2,14.6
				l-22.8,13.6v-56.5l47-28.2V329.2z M998.5,267.4l-22.8-13.6l-24.2-14.6v-56.5l47,28.2V267.4z M952.9,180l47.1-28.3l47.1,28.3
				l-47.1,28.3L952.9,180z M1048.5,182.6v56.5l-24.2,14.6l-22.8,13.6v-56.5L1048.5,182.6z M1048.5,357.4l-22.8-13.6l-24.2-14.6
				v-56.5l47,28.2V357.4z M1002.9,270l22.8-13.7l24.2-14.5l24.2,14.5l22.8,13.7l-47.1,28.3L1002.9,270z M1098.5,329.2l-24.2,14.6
				l-22.8,13.6v-56.5l47-28.2V329.2z M1098.5,267.4l-22.8-13.6l-24.2-14.6v-56.5l47,28.2V267.4z M1052.9,180l47.1-28.3l47.1,28.3
				l-47.1,28.3L1052.9,180z M1148.5,182.6v56.5l-24.2,14.6l-22.8,13.6v-56.5L1148.5,182.6z M1148.5,357.4l-22.8-13.6l-24.2-14.6
				v-56.5l47,28.2V357.4z M1102.9,270l22.8-13.7l24.2-14.5l24.2,14.5l22.8,13.7l-47.1,28.3L1102.9,270z"/>
		</g>
		<g>
			<linearGradient id="SVGID_5_" gradientUnits="userSpaceOnUse" x1="0" y1="540" x2="300" y2="540">
				<stop  offset="5.618000e-03" style="stop-color:#EBC17D"/>
				<stop  offset="0.1854" style="stop-color:#DFB77C"/>
				<stop  offset="0.5955" style="stop-color:#C08329"/>
				<stop  offset="0.8708" style="stop-color:#EABE81"/>
				<stop  offset="1" style="stop-color:#EEDCC3"/>
			</linearGradient>
			<path class="st5" d="M275.8,706.3l24.2-14.5l0,0V568.3v0L252.9,540l47.1-28.3v0V388.3v0L252.9,360l0,0h-5.8l0,0L200,388.3
				L152.9,360l0,0h-5.8l0,0L100,388.3L52.9,360l0,0h-5.8l0,0L0,388.3v123.5L47.1,540L0,568.3v123.5l24.2,14.5L47.1,720h5.8
				l22.8-13.7l24.2-14.5l24.2,14.5l22.8,13.7h5.8l22.8-13.7l24.2-14.5l24.2,14.5l22.8,13.7h5.8L275.8,706.3z M298.5,689.2
				l-24.2,14.6l-22.8,13.6v-56.5l47-28.2V689.2z M298.5,570.8v56.5l-22.8-13.6l-24.2-14.6v-56.5L298.5,570.8z M298.5,509.2
				l-24.2,14.6l-22.8,13.6v-56.5l47-28.2V509.2z M251.5,362.6l47,28.2v56.5l-22.8-13.6l-24.2-14.6V362.6z M274.2,436.3l22.8,13.7
				L250,478.3L202.9,450l22.8-13.7l24.2-14.5L274.2,436.3z M201.5,390.8l47-28.2v56.5l-24.2,14.6l-22.8,13.6V390.8z M201.5,452.6
				l47,28.2v56.5l-22.8-13.6l-24.2-14.6V452.6z M151.5,362.6l47,28.2v56.5l-22.8-13.6l-24.2-14.6V362.6z M174.2,436.3l22.8,13.7
				L150,478.3L102.9,450l22.8-13.7l24.2-14.5L174.2,436.3z M198.5,452.6v56.5l-24.2,14.6l-22.8,13.6v-56.5L198.5,452.6z
				 M101.5,390.8l47-28.2v56.5l-24.2,14.6l-22.8,13.6V390.8z M101.5,452.6l47,28.2v56.5l-22.8-13.6l-24.2-14.6V452.6z M51.5,362.6
				l47,28.2v56.5l-22.8-13.6l-24.2-14.6V362.6z M74.2,436.3L97.1,450L50,478.3L2.9,450l22.8-13.7L50,421.7L74.2,436.3z M98.5,452.6
				v56.5l-24.2,14.6l-22.8,13.6v-56.5L98.5,452.6z M1.5,390.8l47-28.2v56.5l-24.2,14.6L1.5,447.4V390.8z M25.8,523.7L1.5,509.2
				v-56.5l47,28.2v56.5L25.8,523.7z M1.5,570.8l47-28.2v56.5l-24.2,14.6L1.5,627.4V570.8z M48.5,717.4l-22.8-13.6L1.5,689.2v-56.5
				l47,28.2V717.4z M2.9,630l22.8-13.7L50,601.7l24.2,14.5L97.1,630L50,658.3L2.9,630z M98.5,689.2l-24.2,14.6l-22.8,13.6v-56.5
				l47-28.2V689.2z M98.5,627.4l-22.8-13.6l-24.2-14.6v-56.5l47,28.2V627.4z M52.9,540l47.1-28.3l47.1,28.3L100,568.3L52.9,540z
				 M148.5,542.6v56.5l-24.2,14.6l-22.8,13.6v-56.5L148.5,542.6z M148.5,717.4l-22.8-13.6l-24.2-14.6v-56.5l47,28.2V717.4z
				 M102.9,630l22.8-13.7l24.2-14.5l24.2,14.5l22.8,13.7L150,658.3L102.9,630z M198.5,689.2l-24.2,14.6l-22.8,13.6v-56.5l47-28.2
				V689.2z M198.5,627.4l-22.8-13.6l-24.2-14.6v-56.5l47,28.2V627.4z M152.9,540l47.1-28.3l47.1,28.3L200,568.3L152.9,540z
				 M248.5,542.6v56.5l-24.2,14.6l-22.8,13.6v-56.5L248.5,542.6z M248.5,717.4l-22.8-13.6l-24.2-14.6v-56.5l47,28.2V717.4z
				 M202.9,630l22.8-13.7l24.2-14.5l24.2,14.5l22.8,13.7L250,658.3L202.9,630z"/>
		</g>
		<g>
			<linearGradient id="SVGID_6_" gradientUnits="userSpaceOnUse" x1="300" y1="540" x2="600" y2="540">
				<stop  offset="5.618000e-03" style="stop-color:#EBC17D"/>
				<stop  offset="0.1854" style="stop-color:#DFB77C"/>
				<stop  offset="0.5955" style="stop-color:#C08329"/>
				<stop  offset="0.8708" style="stop-color:#EABE81"/>
				<stop  offset="1" style="stop-color:#EEDCC3"/>
			</linearGradient>
			<path class="st6" d="M575.8,706.3l24.2-14.5l0,0V568.3v0L552.9,540l47.1-28.3v0V388.3v0L552.9,360l0,0h-5.8l0,0L500,388.3
				L452.9,360l0,0h-5.8l0,0L400,388.3L352.9,360l0,0h-5.8l0,0L300,388.3v123.5l47.1,28.3L300,568.3v123.5l24.2,14.5l22.8,13.7h5.8
				l22.8-13.7l24.2-14.5l24.2,14.5l22.8,13.7h5.8l22.8-13.7l24.2-14.5l24.2,14.5l22.8,13.7h5.8L575.8,706.3z M598.5,689.2
				l-24.2,14.6l-22.8,13.6v-56.5l47-28.2V689.2z M598.5,570.8v56.5l-22.8-13.6l-24.2-14.6v-56.5L598.5,570.8z M598.5,509.2
				l-24.2,14.6l-22.8,13.6v-56.5l47-28.2V509.2z M551.5,362.6l47,28.2v56.5l-22.8-13.6l-24.2-14.6V362.6z M574.2,436.3l22.8,13.7
				L550,478.3L502.9,450l22.8-13.7l24.2-14.5L574.2,436.3z M501.5,390.8l47-28.2v56.5l-24.2,14.6l-22.8,13.6V390.8z M501.5,452.6
				l47,28.2v56.5l-22.8-13.6l-24.2-14.6V452.6z M451.5,362.6l47,28.2v56.5l-22.8-13.6l-24.2-14.6V362.6z M474.2,436.3l22.8,13.7
				L450,478.3L402.9,450l22.8-13.7l24.2-14.5L474.2,436.3z M498.5,452.6v56.5l-24.2,14.6l-22.8,13.6v-56.5L498.5,452.6z
				 M401.5,390.8l47-28.2v56.5l-24.2,14.6l-22.8,13.6V390.8z M401.5,452.6l47,28.2v56.5l-22.8-13.6l-24.2-14.6V452.6z M351.5,362.6
				l47,28.2v56.5l-22.8-13.6l-24.2-14.6V362.6z M374.2,436.3l22.8,13.7L350,478.3L302.9,450l22.8-13.7l24.2-14.5L374.2,436.3z
				 M398.5,452.6v56.5l-24.2,14.6l-22.8,13.6v-56.5L398.5,452.6z M301.5,390.8l47-28.2v56.5l-24.2,14.6l-22.8,13.6V390.8z
				 M325.8,523.7l-24.2-14.6v-56.5l47,28.2v56.5L325.8,523.7z M301.5,570.8l47-28.2v56.5l-24.2,14.6l-22.8,13.6V570.8z M348.5,717.4
				l-22.8-13.6l-24.2-14.6v-56.5l47,28.2V717.4z M302.9,630l22.8-13.7l24.2-14.5l24.2,14.5l22.8,13.7L350,658.3L302.9,630z
				 M398.5,689.2l-24.2,14.6l-22.8,13.6v-56.5l47-28.2V689.2z M398.5,627.4l-22.8-13.6l-24.2-14.6v-56.5l47,28.2V627.4z M352.9,540
				l47.1-28.3l47.1,28.3L400,568.3L352.9,540z M448.5,542.6v56.5l-24.2,14.6l-22.8,13.6v-56.5L448.5,542.6z M448.5,717.4l-22.8-13.6
				l-24.2-14.6v-56.5l47,28.2V717.4z M402.9,630l22.8-13.7l24.2-14.5l24.2,14.5l22.8,13.7L450,658.3L402.9,630z M498.5,689.2
				l-24.2,14.6l-22.8,13.6v-56.5l47-28.2V689.2z M498.5,627.4l-22.8-13.6l-24.2-14.6v-56.5l47,28.2V627.4z M452.9,540l47.1-28.3
				l47.1,28.3L500,568.3L452.9,540z M548.5,542.6v56.5l-24.2,14.6l-22.8,13.6v-56.5L548.5,542.6z M548.5,717.4l-22.8-13.6
				l-24.2-14.6v-56.5l47,28.2V717.4z M502.9,630l22.8-13.7l24.2-14.5l24.2,14.5l22.8,13.7L550,658.3L502.9,630z"/>
		</g>
		<g>
			<linearGradient id="SVGID_7_" gradientUnits="userSpaceOnUse" x1="600" y1="540" x2="900" y2="540">
				<stop  offset="5.618000e-03" style="stop-color:#EBC17D"/>
				<stop  offset="0.1854" style="stop-color:#DFB77C"/>
				<stop  offset="0.5955" style="stop-color:#C08329"/>
				<stop  offset="0.8708" style="stop-color:#EABE81"/>
				<stop  offset="1" style="stop-color:#EEDCC3"/>
			</linearGradient>
			<path class="st7" d="M875.8,706.3l24.2-14.5l0,0V568.3v0L852.9,540l47.1-28.3v0V388.3v0L852.9,360l0,0h-5.8l0,0L800,388.3
				L752.9,360l0,0h-5.8l0,0L700,388.3L652.9,360l0,0h-5.8l0,0L600,388.3v123.5l47.1,28.3L600,568.3v123.5l24.2,14.5l22.8,13.7h5.8
				l22.8-13.7l24.2-14.5l24.2,14.5l22.8,13.7h5.8l22.8-13.7l24.2-14.5l24.2,14.5l22.8,13.7h5.8L875.8,706.3z M898.5,689.2
				l-24.2,14.6l-22.8,13.6v-56.5l47-28.2V689.2z M898.5,570.8v56.5l-22.8-13.6l-24.2-14.6v-56.5L898.5,570.8z M898.5,509.2
				l-24.2,14.6l-22.8,13.6v-56.5l47-28.2V509.2z M851.5,362.6l47,28.2v56.5l-22.8-13.6l-24.2-14.6V362.6z M874.2,436.3l22.8,13.7
				L850,478.3L802.9,450l22.8-13.7l24.2-14.5L874.2,436.3z M801.5,390.8l47-28.2v56.5l-24.2,14.6l-22.8,13.6V390.8z M801.5,452.6
				l47,28.2v56.5l-22.8-13.6l-24.2-14.6V452.6z M751.5,362.6l47,28.2v56.5l-22.8-13.6l-24.2-14.6V362.6z M774.2,436.3l22.8,13.7
				L750,478.3L702.9,450l22.8-13.7l24.2-14.5L774.2,436.3z M798.5,452.6v56.5l-24.2,14.6l-22.8,13.6v-56.5L798.5,452.6z
				 M701.5,390.8l47-28.2v56.5l-24.2,14.6l-22.8,13.6V390.8z M701.5,452.6l47,28.2v56.5l-22.8-13.6l-24.2-14.6V452.6z M651.5,362.6
				l47,28.2v56.5l-22.8-13.6l-24.2-14.6V362.6z M674.2,436.3l22.8,13.7L650,478.3L602.9,450l22.8-13.7l24.2-14.5L674.2,436.3z
				 M698.5,452.6v56.5l-24.2,14.6l-22.8,13.6v-56.5L698.5,452.6z M601.5,390.8l47-28.2v56.5l-24.2,14.6l-22.8,13.6V390.8z
				 M625.8,523.7l-24.2-14.6v-56.5l47,28.2v56.5L625.8,523.7z M601.5,570.8l47-28.2v56.5l-24.2,14.6l-22.8,13.6V570.8z M648.5,717.4
				l-22.8-13.6l-24.2-14.6v-56.5l47,28.2V717.4z M602.9,630l22.8-13.7l24.2-14.5l24.2,14.5l22.8,13.7L650,658.3L602.9,630z
				 M698.5,689.2l-24.2,14.6l-22.8,13.6v-56.5l47-28.2V689.2z M698.5,627.4l-22.8-13.6l-24.2-14.6v-56.5l47,28.2V627.4z M652.9,540
				l47.1-28.3l47.1,28.3L700,568.3L652.9,540z M748.5,542.6v56.5l-24.2,14.6l-22.8,13.6v-56.5L748.5,542.6z M748.5,717.4l-22.8-13.6
				l-24.2-14.6v-56.5l47,28.2V717.4z M702.9,630l22.8-13.7l24.2-14.5l24.2,14.5l22.8,13.7L750,658.3L702.9,630z M798.5,689.2
				l-24.2,14.6l-22.8,13.6v-56.5l47-28.2V689.2z M798.5,627.4l-22.8-13.6l-24.2-14.6v-56.5l47,28.2V627.4z M752.9,540l47.1-28.3
				l47.1,28.3L800,568.3L752.9,540z M848.5,542.6v56.5l-24.2,14.6l-22.8,13.6v-56.5L848.5,542.6z M848.5,717.4l-22.8-13.6
				l-24.2-14.6v-56.5l47,28.2V717.4z M802.9,630l22.8-13.7l24.2-14.5l24.2,14.5l22.8,13.7L850,658.3L802.9,630z"/>
		</g>
		<g>
			<linearGradient id="SVGID_8_" gradientUnits="userSpaceOnUse" x1="900" y1="540" x2="1200" y2="540">
				<stop  offset="5.618000e-03" style="stop-color:#EBC17D"/>
				<stop  offset="0.1854" style="stop-color:#DFB77C"/>
				<stop  offset="0.5955" style="stop-color:#C08329"/>
				<stop  offset="0.8708" style="stop-color:#EABE81"/>
				<stop  offset="1" style="stop-color:#EEDCC3"/>
			</linearGradient>
			<path class="st8" d="M1175.8,706.3l24.2-14.5l0,0V568.3v0l-47.1-28.3l47.1-28.3v0V388.3v0l-47.1-28.3l0,0h-5.8l0,0l-47.1,28.3
				l-47.1-28.3l0,0h-5.8l0,0l-47.1,28.3L952.9,360l0,0h-5.8l0,0L900,388.3v123.5l47.1,28.3L900,568.3v123.5l24.2,14.5l22.8,13.7h5.8
				l22.8-13.7l24.2-14.5l24.2,14.5l22.8,13.7h5.8l22.8-13.7l24.2-14.5l24.2,14.5l22.8,13.7h5.8L1175.8,706.3z M1198.5,689.2
				l-24.2,14.6l-22.8,13.6v-56.5l47-28.2V689.2z M1198.5,570.8v56.5l-22.8-13.6l-24.2-14.6v-56.5L1198.5,570.8z M1198.5,509.2
				l-24.2,14.6l-22.8,13.6v-56.5l47-28.2V509.2z M1151.5,362.6l47,28.2v56.5l-22.8-13.6l-24.2-14.6V362.6z M1174.2,436.3l22.8,13.7
				l-47.1,28.3l-47.1-28.3l22.8-13.7l24.2-14.5L1174.2,436.3z M1101.5,390.8l47-28.2v56.5l-24.2,14.6l-22.8,13.6V390.8z
				 M1101.5,452.6l47,28.2v56.5l-22.8-13.6l-24.2-14.6V452.6z M1051.5,362.6l47,28.2v56.5l-22.8-13.6l-24.2-14.6V362.6z
				 M1074.2,436.3l22.8,13.7l-47.1,28.3l-47.1-28.3l22.8-13.7l24.2-14.5L1074.2,436.3z M1098.5,452.6v56.5l-24.2,14.6l-22.8,13.6
				v-56.5L1098.5,452.6z M1001.5,390.8l47-28.2v56.5l-24.2,14.6l-22.8,13.6V390.8z M1001.5,452.6l47,28.2v56.5l-22.8-13.6
				l-24.2-14.6V452.6z M951.5,362.6l47,28.2v56.5l-22.8-13.6l-24.2-14.6V362.6z M974.2,436.3l22.8,13.7L950,478.3L902.9,450
				l22.8-13.7l24.2-14.5L974.2,436.3z M998.5,452.6v56.5l-24.2,14.6l-22.8,13.6v-56.5L998.5,452.6z M901.5,390.8l47-28.2v56.5
				l-24.2,14.6l-22.8,13.6V390.8z M925.8,523.7l-24.2-14.6v-56.5l47,28.2v56.5L925.8,523.7z M901.5,570.8l47-28.2v56.5l-24.2,14.6
				l-22.8,13.6V570.8z M948.5,717.4l-22.8-13.6l-24.2-14.6v-56.5l47,28.2V717.4z M902.9,630l22.8-13.7l24.2-14.5l24.2,14.5
				l22.8,13.7L950,658.3L902.9,630z M998.5,689.2l-24.2,14.6l-22.8,13.6v-56.5l47-28.2V689.2z M998.5,627.4l-22.8-13.6l-24.2-14.6
				v-56.5l47,28.2V627.4z M952.9,540l47.1-28.3l47.1,28.3l-47.1,28.3L952.9,540z M1048.5,542.6v56.5l-24.2,14.6l-22.8,13.6v-56.5
				L1048.5,542.6z M1048.5,717.4l-22.8-13.6l-24.2-14.6v-56.5l47,28.2V717.4z M1002.9,630l22.8-13.7l24.2-14.5l24.2,14.5l22.8,13.7
				l-47.1,28.3L1002.9,630z M1098.5,689.2l-24.2,14.6l-22.8,13.6v-56.5l47-28.2V689.2z M1098.5,627.4l-22.8-13.6l-24.2-14.6v-56.5
				l47,28.2V627.4z M1052.9,540l47.1-28.3l47.1,28.3l-47.1,28.3L1052.9,540z M1148.5,542.6v56.5l-24.2,14.6l-22.8,13.6v-56.5
				L1148.5,542.6z M1148.5,717.4l-22.8-13.6l-24.2-14.6v-56.5l47,28.2V717.4z M1102.9,630l22.8-13.7l24.2-14.5l24.2,14.5l22.8,13.7
				l-47.1,28.3L1102.9,630z"/>
		</g>
		<g>
			<linearGradient id="SVGID_9_" gradientUnits="userSpaceOnUse" x1="0" y1="900" x2="300" y2="900">
				<stop  offset="5.618000e-03" style="stop-color:#EBC17D"/>
				<stop  offset="0.1854" style="stop-color:#DFB77C"/>
				<stop  offset="0.5955" style="stop-color:#C08329"/>
				<stop  offset="0.8708" style="stop-color:#EABE81"/>
				<stop  offset="1" style="stop-color:#EEDCC3"/>
			</linearGradient>
			<path class="st9" d="M275.8,1066.3l24.2-14.5l0,0V928.3v0L252.9,900l47.1-28.3v0V748.3v0L252.9,720l0,0h-5.8l0,0L200,748.3
				L152.9,720l0,0h-5.8l0,0L100,748.3L52.9,720l0,0h-5.8l0,0L0,748.3v123.5L47.1,900L0,928.3v123.5l24.2,14.5l22.8,13.7h5.8
				l22.8-13.7l24.2-14.5l24.2,14.5l22.8,13.7h5.8l22.8-13.7l24.2-14.5l24.2,14.5l22.8,13.7h5.8L275.8,1066.3z M298.5,1049.2
				l-24.2,14.6l-22.8,13.6v-56.5l47-28.2V1049.2z M298.5,930.8v56.5l-22.8-13.6l-24.2-14.6v-56.5L298.5,930.8z M298.5,869.2
				l-24.2,14.6l-22.8,13.6v-56.5l47-28.2V869.2z M251.5,722.6l47,28.2v56.5l-22.8-13.6l-24.2-14.6V722.6z M274.2,796.3l22.8,13.7
				L250,838.3L202.9,810l22.8-13.7l24.2-14.5L274.2,796.3z M201.5,750.8l47-28.2v56.5l-24.2,14.6l-22.8,13.6V750.8z M201.5,812.6
				l47,28.2v56.5l-22.8-13.6l-24.2-14.6V812.6z M151.5,722.6l47,28.2v56.5l-22.8-13.6l-24.2-14.6V722.6z M174.2,796.3l22.8,13.7
				L150,838.3L102.9,810l22.8-13.7l24.2-14.5L174.2,796.3z M198.5,812.6v56.5l-24.2,14.6l-22.8,13.6v-56.5L198.5,812.6z
				 M101.5,750.8l47-28.2v56.5l-24.2,14.6l-22.8,13.6V750.8z M101.5,812.6l47,28.2v56.5l-22.8-13.6l-24.2-14.6V812.6z M51.5,722.6
				l47,28.2v56.5l-22.8-13.6l-24.2-14.6V722.6z M74.2,796.3L97.1,810L50,838.3L2.9,810l22.8-13.7L50,781.7L74.2,796.3z M98.5,812.6
				v56.5l-24.2,14.6l-22.8,13.6v-56.5L98.5,812.6z M1.5,750.8l47-28.2v56.5l-24.2,14.6L1.5,807.4V750.8z M25.8,883.7L1.5,869.2
				v-56.5l47,28.2v56.5L25.8,883.7z M1.5,930.8l47-28.2v56.5l-24.2,14.6L1.5,987.4V930.8z M48.5,1077.4l-22.8-13.6l-24.2-14.6v-56.5
				l47,28.2V1077.4z M2.9,990l22.8-13.7L50,961.7l24.2,14.5L97.1,990L50,1018.3L2.9,990z M98.5,1049.2l-24.2,14.6l-22.8,13.6v-56.5
				l47-28.2V1049.2z M98.5,987.4l-22.8-13.6l-24.2-14.6v-56.5l47,28.2V987.4z M52.9,900l47.1-28.3l47.1,28.3L100,928.3L52.9,900z
				 M148.5,902.6v56.5l-24.2,14.6l-22.8,13.6v-56.5L148.5,902.6z M148.5,1077.4l-22.8-13.6l-24.2-14.6v-56.5l47,28.2V1077.4z
				 M102.9,990l22.8-13.7l24.2-14.5l24.2,14.5l22.8,13.7l-47.1,28.3L102.9,990z M198.5,1049.2l-24.2,14.6l-22.8,13.6v-56.5l47-28.2
				V1049.2z M198.5,987.4l-22.8-13.6l-24.2-14.6v-56.5l47,28.2V987.4z M152.9,900l47.1-28.3l47.1,28.3L200,928.3L152.9,900z
				 M248.5,902.6v56.5l-24.2,14.6l-22.8,13.6v-56.5L248.5,902.6z M248.5,1077.4l-22.8-13.6l-24.2-14.6v-56.5l47,28.2V1077.4z
				 M202.9,990l22.8-13.7l24.2-14.5l24.2,14.5l22.8,13.7l-47.1,28.3L202.9,990z"/>
		</g>
		<g>
			<linearGradient id="SVGID_10_" gradientUnits="userSpaceOnUse" x1="300" y1="900" x2="600" y2="900">
				<stop  offset="5.618000e-03" style="stop-color:#EBC17D"/>
				<stop  offset="0.1854" style="stop-color:#DFB77C"/>
				<stop  offset="0.5955" style="stop-color:#C08329"/>
				<stop  offset="0.8708" style="stop-color:#EABE81"/>
				<stop  offset="1" style="stop-color:#EEDCC3"/>
			</linearGradient>
			<path class="st10" d="M575.8,1066.3l24.2-14.5l0,0V928.3v0L552.9,900l47.1-28.3v0V748.3v0L552.9,720l0,0h-5.8l0,0L500,748.3
				L452.9,720l0,0h-5.8l0,0L400,748.3L352.9,720l0,0h-5.8l0,0L300,748.3v123.5l47.1,28.3L300,928.3v123.5l24.2,14.5l22.8,13.7h5.8
				l22.8-13.7l24.2-14.5l24.2,14.5l22.8,13.7h5.8l22.8-13.7l24.2-14.5l24.2,14.5l22.8,13.7h5.8L575.8,1066.3z M598.5,1049.2
				l-24.2,14.6l-22.8,13.6v-56.5l47-28.2V1049.2z M598.5,930.8v56.5l-22.8-13.6l-24.2-14.6v-56.5L598.5,930.8z M598.5,869.2
				l-24.2,14.6l-22.8,13.6v-56.5l47-28.2V869.2z M551.5,722.6l47,28.2v56.5l-22.8-13.6l-24.2-14.6V722.6z M574.2,796.3l22.8,13.7
				L550,838.3L502.9,810l22.8-13.7l24.2-14.5L574.2,796.3z M501.5,750.8l47-28.2v56.5l-24.2,14.6l-22.8,13.6V750.8z M501.5,812.6
				l47,28.2v56.5l-22.8-13.6l-24.2-14.6V812.6z M451.5,722.6l47,28.2v56.5l-22.8-13.6l-24.2-14.6V722.6z M474.2,796.3l22.8,13.7
				L450,838.3L402.9,810l22.8-13.7l24.2-14.5L474.2,796.3z M498.5,812.6v56.5l-24.2,14.6l-22.8,13.6v-56.5L498.5,812.6z
				 M401.5,750.8l47-28.2v56.5l-24.2,14.6l-22.8,13.6V750.8z M401.5,812.6l47,28.2v56.5l-22.8-13.6l-24.2-14.6V812.6z M351.5,722.6
				l47,28.2v56.5l-22.8-13.6l-24.2-14.6V722.6z M374.2,796.3l22.8,13.7L350,838.3L302.9,810l22.8-13.7l24.2-14.5L374.2,796.3z
				 M398.5,812.6v56.5l-24.2,14.6l-22.8,13.6v-56.5L398.5,812.6z M301.5,750.8l47-28.2v56.5l-24.2,14.6l-22.8,13.6V750.8z
				 M325.8,883.7l-24.2-14.6v-56.5l47,28.2v56.5L325.8,883.7z M301.5,930.8l47-28.2v56.5l-24.2,14.6l-22.8,13.6V930.8z
				 M348.5,1077.4l-22.8-13.6l-24.2-14.6v-56.5l47,28.2V1077.4z M302.9,990l22.8-13.7l24.2-14.5l24.2,14.5l22.8,13.7l-47.1,28.3
				L302.9,990z M398.5,1049.2l-24.2,14.6l-22.8,13.6v-56.5l47-28.2V1049.2z M398.5,987.4l-22.8-13.6l-24.2-14.6v-56.5l47,28.2V987.4
				z M352.9,900l47.1-28.3l47.1,28.3L400,928.3L352.9,900z M448.5,902.6v56.5l-24.2,14.6l-22.8,13.6v-56.5L448.5,902.6z
				 M448.5,1077.4l-22.8-13.6l-24.2-14.6v-56.5l47,28.2V1077.4z M402.9,990l22.8-13.7l24.2-14.5l24.2,14.5l22.8,13.7l-47.1,28.3
				L402.9,990z M498.5,1049.2l-24.2,14.6l-22.8,13.6v-56.5l47-28.2V1049.2z M498.5,987.4l-22.8-13.6l-24.2-14.6v-56.5l47,28.2V987.4
				z M452.9,900l47.1-28.3l47.1,28.3L500,928.3L452.9,900z M548.5,902.6v56.5l-24.2,14.6l-22.8,13.6v-56.5L548.5,902.6z
				 M548.5,1077.4l-22.8-13.6l-24.2-14.6v-56.5l47,28.2V1077.4z M502.9,990l22.8-13.7l24.2-14.5l24.2,14.5l22.8,13.7l-47.1,28.3
				L502.9,990z"/>
		</g>
		<g>
			<linearGradient id="SVGID_11_" gradientUnits="userSpaceOnUse" x1="600" y1="900" x2="900" y2="900">
				<stop  offset="5.618000e-03" style="stop-color:#EBC17D"/>
				<stop  offset="0.1854" style="stop-color:#DFB77C"/>
				<stop  offset="0.5955" style="stop-color:#C08329"/>
				<stop  offset="0.8708" style="stop-color:#EABE81"/>
				<stop  offset="1" style="stop-color:#EEDCC3"/>
			</linearGradient>
			<path class="st11" d="M875.8,1066.3l24.2-14.5l0,0V928.3v0L852.9,900l47.1-28.3v0V748.3v0L852.9,720l0,0h-5.8l0,0L800,748.3
				L752.9,720l0,0h-5.8l0,0L700,748.3L652.9,720l0,0h-5.8l0,0L600,748.3v123.5l47.1,28.3L600,928.3v123.5l24.2,14.5l22.8,13.7h5.8
				l22.8-13.7l24.2-14.5l24.2,14.5l22.8,13.7h5.8l22.8-13.7l24.2-14.5l24.2,14.5l22.8,13.7h5.8L875.8,1066.3z M898.5,1049.2
				l-24.2,14.6l-22.8,13.6v-56.5l47-28.2V1049.2z M898.5,930.8v56.5l-22.8-13.6l-24.2-14.6v-56.5L898.5,930.8z M898.5,869.2
				l-24.2,14.6l-22.8,13.6v-56.5l47-28.2V869.2z M851.5,722.6l47,28.2v56.5l-22.8-13.6l-24.2-14.6V722.6z M874.2,796.3l22.8,13.7
				L850,838.3L802.9,810l22.8-13.7l24.2-14.5L874.2,796.3z M801.5,750.8l47-28.2v56.5l-24.2,14.6l-22.8,13.6V750.8z M801.5,812.6
				l47,28.2v56.5l-22.8-13.6l-24.2-14.6V812.6z M751.5,722.6l47,28.2v56.5l-22.8-13.6l-24.2-14.6V722.6z M774.2,796.3l22.8,13.7
				L750,838.3L702.9,810l22.8-13.7l24.2-14.5L774.2,796.3z M798.5,812.6v56.5l-24.2,14.6l-22.8,13.6v-56.5L798.5,812.6z
				 M701.5,750.8l47-28.2v56.5l-24.2,14.6l-22.8,13.6V750.8z M701.5,812.6l47,28.2v56.5l-22.8-13.6l-24.2-14.6V812.6z M651.5,722.6
				l47,28.2v56.5l-22.8-13.6l-24.2-14.6V722.6z M674.2,796.3l22.8,13.7L650,838.3L602.9,810l22.8-13.7l24.2-14.5L674.2,796.3z
				 M698.5,812.6v56.5l-24.2,14.6l-22.8,13.6v-56.5L698.5,812.6z M601.5,750.8l47-28.2v56.5l-24.2,14.6l-22.8,13.6V750.8z
				 M625.8,883.7l-24.2-14.6v-56.5l47,28.2v56.5L625.8,883.7z M601.5,930.8l47-28.2v56.5l-24.2,14.6l-22.8,13.6V930.8z
				 M648.5,1077.4l-22.8-13.6l-24.2-14.6v-56.5l47,28.2V1077.4z M602.9,990l22.8-13.7l24.2-14.5l24.2,14.5l22.8,13.7l-47.1,28.3
				L602.9,990z M698.5,1049.2l-24.2,14.6l-22.8,13.6v-56.5l47-28.2V1049.2z M698.5,987.4l-22.8-13.6l-24.2-14.6v-56.5l47,28.2V987.4
				z M652.9,900l47.1-28.3l47.1,28.3L700,928.3L652.9,900z M748.5,902.6v56.5l-24.2,14.6l-22.8,13.6v-56.5L748.5,902.6z
				 M748.5,1077.4l-22.8-13.6l-24.2-14.6v-56.5l47,28.2V1077.4z M702.9,990l22.8-13.7l24.2-14.5l24.2,14.5l22.8,13.7l-47.1,28.3
				L702.9,990z M798.5,1049.2l-24.2,14.6l-22.8,13.6v-56.5l47-28.2V1049.2z M798.5,987.4l-22.8-13.6l-24.2-14.6v-56.5l47,28.2V987.4
				z M752.9,900l47.1-28.3l47.1,28.3L800,928.3L752.9,900z M848.5,902.6v56.5l-24.2,14.6l-22.8,13.6v-56.5L848.5,902.6z
				 M848.5,1077.4l-22.8-13.6l-24.2-14.6v-56.5l47,28.2V1077.4z M802.9,990l22.8-13.7l24.2-14.5l24.2,14.5l22.8,13.7l-47.1,28.3
				L802.9,990z"/>
		</g>
		<g>
			<linearGradient id="SVGID_12_" gradientUnits="userSpaceOnUse" x1="900" y1="900" x2="1200" y2="900">
				<stop  offset="5.618000e-03" style="stop-color:#EBC17D"/>
				<stop  offset="0.1854" style="stop-color:#DFB77C"/>
				<stop  offset="0.5955" style="stop-color:#C08329"/>
				<stop  offset="0.8708" style="stop-color:#EABE81"/>
				<stop  offset="1" style="stop-color:#EEDCC3"/>
			</linearGradient>
			<path class="st12" d="M1175.8,1066.3l24.2-14.5l0,0V928.3v0l-47.1-28.3l47.1-28.3v0V748.3v0l-47.1-28.3l0,0h-5.8l0,0l-47.1,28.3
				l-47.1-28.3l0,0h-5.8l0,0l-47.1,28.3L952.9,720l0,0h-5.8l0,0L900,748.3v123.5l47.1,28.3L900,928.3v123.5l24.2,14.5l22.8,13.7h5.8
				l22.8-13.7l24.2-14.5l24.2,14.5l22.8,13.7h5.8l22.8-13.7l24.2-14.5l24.2,14.5l22.8,13.7h5.8L1175.8,1066.3z M1198.5,1049.2
				l-24.2,14.6l-22.8,13.6v-56.5l47-28.2V1049.2z M1198.5,930.8v56.5l-22.8-13.6l-24.2-14.6v-56.5L1198.5,930.8z M1198.5,869.2
				l-24.2,14.6l-22.8,13.6v-56.5l47-28.2V869.2z M1151.5,722.6l47,28.2v56.5l-22.8-13.6l-24.2-14.6V722.6z M1174.2,796.3l22.8,13.7
				l-47.1,28.3l-47.1-28.3l22.8-13.7l24.2-14.5L1174.2,796.3z M1101.5,750.8l47-28.2v56.5l-24.2,14.6l-22.8,13.6V750.8z
				 M1101.5,812.6l47,28.2v56.5l-22.8-13.6l-24.2-14.6V812.6z M1051.5,722.6l47,28.2v56.5l-22.8-13.6l-24.2-14.6V722.6z
				 M1074.2,796.3l22.8,13.7l-47.1,28.3l-47.1-28.3l22.8-13.7l24.2-14.5L1074.2,796.3z M1098.5,812.6v56.5l-24.2,14.6l-22.8,13.6
				v-56.5L1098.5,812.6z M1001.5,750.8l47-28.2v56.5l-24.2,14.6l-22.8,13.6V750.8z M1001.5,812.6l47,28.2v56.5l-22.8-13.6
				l-24.2-14.6V812.6z M951.5,722.6l47,28.2v56.5l-22.8-13.6l-24.2-14.6V722.6z M974.2,796.3l22.8,13.7L950,838.3L902.9,810
				l22.8-13.7l24.2-14.5L974.2,796.3z M998.5,812.6v56.5l-24.2,14.6l-22.8,13.6v-56.5L998.5,812.6z M901.5,750.8l47-28.2v56.5
				l-24.2,14.6l-22.8,13.6V750.8z M925.8,883.7l-24.2-14.6v-56.5l47,28.2v56.5L925.8,883.7z M901.5,930.8l47-28.2v56.5l-24.2,14.6
				l-22.8,13.6V930.8z M948.5,1077.4l-22.8-13.6l-24.2-14.6v-56.5l47,28.2V1077.4z M902.9,990l22.8-13.7l24.2-14.5l24.2,14.5
				l22.8,13.7l-47.1,28.3L902.9,990z M998.5,1049.2l-24.2,14.6l-22.8,13.6v-56.5l47-28.2V1049.2z M998.5,987.4l-22.8-13.6
				l-24.2-14.6v-56.5l47,28.2V987.4z M952.9,900l47.1-28.3l47.1,28.3l-47.1,28.3L952.9,900z M1048.5,902.6v56.5l-24.2,14.6
				l-22.8,13.6v-56.5L1048.5,902.6z M1048.5,1077.4l-22.8-13.6l-24.2-14.6v-56.5l47,28.2V1077.4z M1002.9,990l22.8-13.7l24.2-14.5
				l24.2,14.5l22.8,13.7l-47.1,28.3L1002.9,990z M1098.5,1049.2l-24.2,14.6l-22.8,13.6v-56.5l47-28.2V1049.2z M1098.5,987.4
				l-22.8-13.6l-24.2-14.6v-56.5l47,28.2V987.4z M1052.9,900l47.1-28.3l47.1,28.3l-47.1,28.3L1052.9,900z M1148.5,902.6v56.5
				l-24.2,14.6l-22.8,13.6v-56.5L1148.5,902.6z M1148.5,1077.4l-22.8-13.6l-24.2-14.6v-56.5l47,28.2V1077.4z M1102.9,990l22.8-13.7
				l24.2-14.5l24.2,14.5l22.8,13.7l-47.1,28.3L1102.9,990z"/>
		</g>
	</g>
</g>
<g id="Text">
</g>
</svg>
