<svg xmlns="http://www.w3.org/2000/svg" width="1920" height="1080"><path d="M-241,-114L-101,-131L319,-217Z" fill="#ebf8e7" stroke="#ebf8e7" stroke-width="1.51"/><path d="M435,1244L-98,1251L627,1268Z" fill="#6a9a6c" stroke="#6a9a6c" stroke-width="1.51"/><path d="M627,1268L-98,1251L778,1277Z" fill="#629666" stroke="#629666" stroke-width="1.51"/><path d="M942,-200L1142,-152L1298,-143Z" fill="#a8d8a9" stroke="#a8d8a9" stroke-width="1.51"/><path d="M942,-200L1298,-143L1668,-187Z" fill="#9dd2a3" stroke="#9dd2a3" stroke-width="1.51"/><path d="M1358,1229L1037,1285L1714,1248Z" fill="#1d783a" stroke="#1d783a" stroke-width="1.51"/><path d="M1714,1248L1037,1285L2074,1285Z" fill="#106a31" stroke="#106a31" stroke-width="1.51"/><path d="M942,-200L1668,-187L2107,-207Z" fill="#93c398" stroke="#93c398" stroke-width="1.51"/><path d="M319,-217L942,-200L2107,-207Z" fill="#aadaac" stroke="#aadaac" stroke-width="1.51"/><path d="M1668,-187L1954,-183L2107,-207Z" fill="#85b189" stroke="#85b189" stroke-width="1.51"/><path d="M2019,964L2110,1144L2111,957Z" fill="#09672d" stroke="#09672d" stroke-width="1.51"/><path d="M2070,350L2091,406L2131,195Z" fill="#59935e" stroke="#59935e" stroke-width="1.51"/><path d="M1996,-6L2131,195L2137,-4Z" fill="#709e73" stroke="#709e73" stroke-width="1.51"/><path d="M2107,-207L1996,-6L2137,-4Z" fill="#7aa27c" stroke="#7aa27c" stroke-width="1.51"/><path d="M2091,406L2023,667L2169,677Z" fill="#398647" stroke="#398647" stroke-width="1.51"/><path d="M2023,667L2078,805L2169,677Z" fill="#257e3f" stroke="#257e3f" stroke-width="1.51"/><path d="M2078,805L2111,957L2169,677Z" fill="#1b7538" stroke="#1b7538" stroke-width="1.51"/><path d="M2131,195L2091,406L2169,677Z" fill="#4c8c53" stroke="#4c8c53" stroke-width="1.51"/><path d="M2111,957L2110,1144L2169,677Z" fill="#116b31" stroke="#116b31" stroke-width="1.51"/><path d="M2137,-4L2131,195L2169,677Z" fill="#5a915e" stroke="#5a915e" stroke-width="1.51"/><path d="M1928,1209L1714,1248L2074,1285Z" fill="#005e26" stroke="#005e26" stroke-width="1.51"/><path d="M1971,406L2023,667L2091,406Z" fill="#469050" stroke="#469050" stroke-width="1.51"/><path d="M1954,-183L1996,-6L2107,-207Z" fill="#7fa882" stroke="#7fa882" stroke-width="1.51"/><path d="M2019,964L1948,1143L2110,1144Z" fill="#03672a" stroke="#03672a" stroke-width="1.51"/><path d="M2078,805L2019,964L2111,957Z" fill="#147134" stroke="#147134" stroke-width="1.51"/><path d="M1996,-6L1906,123L2131,195Z" fill="#70a272" stroke="#70a272" stroke-width="1.51"/><path d="M1906,123L1994,258L2131,195Z" fill="#689f6b" stroke="#689f6b" stroke-width="1.51"/><path d="M1994,258L2070,350L2131,195Z" fill="#5f9863" stroke="#5f9863" stroke-width="1.51"/><path d="M1991,821L2019,964L2078,805Z" fill="#187738" stroke="#187738" stroke-width="1.51"/><path d="M1542,1212L1358,1229L1714,1248Z" fill="#147235" stroke="#147235" stroke-width="1.51"/><path d="M1948,1143L1928,1209L2074,1285Z" fill="#005c25" stroke="#005c25" stroke-width="1.51"/><path d="M1948,1143L2074,1285L2110,1144Z" fill="#005b24" stroke="#005b24" stroke-width="1.51"/><path d="M2023,667L1991,821L2078,805Z" fill="#217f3e" stroke="#217f3e" stroke-width="1.51"/><path d="M2070,350L1971,406L2091,406Z" fill="#539458" stroke="#539458" stroke-width="1.51"/><path d="M1971,406L1803,601L2023,667Z" fill="#40934e" stroke="#40934e" stroke-width="1.51"/><path d="M1994,258L1971,406L2070,350Z" fill="#599a5e" stroke="#599a5e" stroke-width="1.51"/><path d="M1816,439L1803,601L1971,406Z" fill="#4c9c56" stroke="#4c9c56" stroke-width="1.51"/><path d="M1954,-183L1865,-129L1996,-6Z" fill="#80ad83" stroke="#80ad83" stroke-width="1.51"/><path d="M1814,1072L1948,1143L2019,964Z" fill="#066f2f" stroke="#066f2f" stroke-width="1.51"/><path d="M1991,821L1791,893L2019,964Z" fill="#177c39" stroke="#177c39" stroke-width="1.51"/><path d="M1802,743L1991,821L2023,667Z" fill="#248742" stroke="#248742" stroke-width="1.51"/><path d="M1803,601L1802,743L2023,667Z" fill="#319048" stroke="#319048" stroke-width="1.51"/><path d="M1791,893L1814,1072L2019,964Z" fill="#117836" stroke="#117836" stroke-width="1.51"/><path d="M1668,-187L1865,-129L1954,-183Z" fill="#87b68b" stroke="#87b68b" stroke-width="1.51"/><path d="M1810,320L1971,406L1994,258Z" fill="#5da062" stroke="#5da062" stroke-width="1.51"/><path d="M1906,123L1810,320L1994,258Z" fill="#67a56b" stroke="#67a56b" stroke-width="1.51"/><path d="M1852,54L1906,123L1996,-6Z" fill="#76ab79" stroke="#76ab79" stroke-width="1.51"/><path d="M1865,-129L1852,54L1996,-6Z" fill="#7dae80" stroke="#7dae80" stroke-width="1.51"/><path d="M1802,743L1791,893L1991,821Z" fill="#208640" stroke="#208640" stroke-width="1.51"/><path d="M1772,1196L1714,1248L1928,1209Z" fill="#05662b" stroke="#05662b" stroke-width="1.51"/><path d="M1810,320L1816,439L1971,406Z" fill="#57a05f" stroke="#57a05f" stroke-width="1.51"/><path d="M1790,126L1810,320L1906,123Z" fill="#6eab72" stroke="#6eab72" stroke-width="1.51"/><path d="M1814,1072L1928,1209L1948,1143Z" fill="#006a2b" stroke="#006a2b" stroke-width="1.51"/><path d="M1814,1072L1772,1196L1928,1209Z" fill="#036b2c" stroke="#036b2c" stroke-width="1.51"/><path d="M1712,19L1852,54L1865,-129Z" fill="#80b483" stroke="#80b483" stroke-width="1.51"/><path d="M1852,54L1790,126L1906,123Z" fill="#75ad78" stroke="#75ad78" stroke-width="1.51"/><path d="M1668,-187L1712,19L1865,-129Z" fill="#87b88b" stroke="#87b88b" stroke-width="1.51"/><path d="M1790,126L1710,321L1810,320Z" fill="#69ac6f" stroke="#69ac6f" stroke-width="1.51"/><path d="M1712,19L1790,126L1852,54Z" fill="#7ab27e" stroke="#7ab27e" stroke-width="1.51"/><path d="M1651,113L1710,321L1790,126Z" fill="#72b177" stroke="#72b177" stroke-width="1.51"/><path d="M1670,780L1791,893L1802,743Z" fill="#258c45" stroke="#258c45" stroke-width="1.51"/><path d="M1693,676L1802,743L1803,601Z" fill="#35964d" stroke="#35964d" stroke-width="1.51"/><path d="M1710,321L1704,420L1810,320Z" fill="#60a968" stroke="#60a968" stroke-width="1.51"/><path d="M1656,1105L1772,1196L1814,1072Z" fill="#0a7331" stroke="#0a7331" stroke-width="1.51"/><path d="M1791,893L1635,943L1814,1072Z" fill="#187f3b" stroke="#187f3b" stroke-width="1.51"/><path d="M1635,943L1656,1105L1814,1072Z" fill="#157c38" stroke="#157c38" stroke-width="1.51"/><path d="M1810,320L1704,420L1816,439Z" fill="#5aa562" stroke="#5aa562" stroke-width="1.51"/><path d="M1704,420L1803,601L1816,439Z" fill="#4fa059" stroke="#4fa059" stroke-width="1.51"/><path d="M1704,420L1693,676L1803,601Z" fill="#469e55" stroke="#469e55" stroke-width="1.51"/><path d="M1554,522L1693,676L1704,420Z" fill="#4ca45a" stroke="#4ca45a" stroke-width="1.51"/><path d="M1693,676L1670,780L1802,743Z" fill="#2d944b" stroke="#2d944b" stroke-width="1.51"/><path d="M1298,-143L1545,-123L1668,-187Z" fill="#93c699" stroke="#93c699" stroke-width="1.51"/><path d="M1712,19L1651,113L1790,126Z" fill="#7bb580" stroke="#7bb580" stroke-width="1.51"/><path d="M1670,780L1635,943L1791,893Z" fill="#228943" stroke="#228943" stroke-width="1.51"/><path d="M1656,1105L1714,1248L1772,1196Z" fill="#0b6f30" stroke="#0b6f30" stroke-width="1.51"/><path d="M44,1231L-98,1251L435,1244Z" fill="#749f76" stroke="#749f76" stroke-width="1.51"/><path d="M1651,113L1557,133L1710,321Z" fill="#75b57b" stroke="#75b57b" stroke-width="1.51"/><path d="M1454,315L1704,420L1710,321Z" fill="#65af6c" stroke="#65af6c" stroke-width="1.51"/><path d="M1557,133L1454,315L1710,321Z" fill="#71b677" stroke="#71b677" stroke-width="1.51"/><path d="M1668,-187L1545,-123L1712,19Z" fill="#8bbe90" stroke="#8bbe90" stroke-width="1.51"/><path d="M1656,1105L1542,1212L1714,1248Z" fill="#107133" stroke="#107133" stroke-width="1.51"/><path d="M1545,-123L1651,113L1712,19Z" fill="#85bb8a" stroke="#85bb8a" stroke-width="1.51"/><path d="M1545,-123L1557,133L1651,113Z" fill="#84bd89" stroke="#84bd89" stroke-width="1.51"/><path d="M1554,522L1490,630L1693,676Z" fill="#45a359" stroke="#45a359" stroke-width="1.51"/><path d="M1454,315L1554,522L1704,420Z" fill="#5eae69" stroke="#5eae69" stroke-width="1.51"/><path d="M1545,-123L1452,-57L1557,133Z" fill="#8bc291" stroke="#8bc291" stroke-width="1.51"/><path d="M1635,943L1508,1040L1656,1105Z" fill="#1a823d" stroke="#1a823d" stroke-width="1.51"/><path d="M1476,755L1670,780L1693,676Z" fill="#31994f" stroke="#31994f" stroke-width="1.51"/><path d="M1490,630L1476,755L1693,676Z" fill="#3c9f55" stroke="#3c9f55" stroke-width="1.51"/><path d="M1529,960L1508,1040L1635,943Z" fill="#208842" stroke="#208842" stroke-width="1.51"/><path d="M1529,960L1635,943L1670,780Z" fill="#258c45" stroke="#258c45" stroke-width="1.51"/><path d="M1476,755L1529,960L1670,780Z" fill="#2c944c" stroke="#2c944c" stroke-width="1.51"/><path d="M1508,1040L1542,1212L1656,1105Z" fill="#157c39" stroke="#157c39" stroke-width="1.51"/><path d="M1476,755L1387,831L1529,960Z" fill="#30974e" stroke="#30974e" stroke-width="1.51"/><path d="M1508,1040L1358,1229L1542,1212Z" fill="#1a7d3a" stroke="#1a7d3a" stroke-width="1.51"/><path d="M1298,-143L1452,-57L1545,-123Z" fill="#94c999" stroke="#94c999" stroke-width="1.51"/><path d="M1382,370L1310,460L1554,522Z" fill="#61b56c" stroke="#61b56c" stroke-width="1.51"/><path d="M1454,315L1382,370L1554,522Z" fill="#65b56e" stroke="#65b56e" stroke-width="1.51"/><path d="M1452,-57L1344,53L1557,133Z" fill="#89c48f" stroke="#89c48f" stroke-width="1.51"/><path d="M1344,53L1350,150L1557,133Z" fill="#85c48b" stroke="#85c48b" stroke-width="1.51"/><path d="M1350,150L1454,315L1557,133Z" fill="#7cbe82" stroke="#7cbe82" stroke-width="1.51"/><path d="M1310,460L1327,567L1554,522Z" fill="#5ab266" stroke="#5ab266" stroke-width="1.51"/><path d="M1327,567L1490,630L1554,522Z" fill="#4fac60" stroke="#4fac60" stroke-width="1.51"/><path d="M1349,1027L1358,1229L1508,1040Z" fill="#208640" stroke="#208640" stroke-width="1.51"/><path d="M1352,958L1508,1040L1529,960Z" fill="#258c45" stroke="#258c45" stroke-width="1.51"/><path d="M1387,831L1352,958L1529,960Z" fill="#2c944b" stroke="#2c944b" stroke-width="1.51"/><path d="M1352,958L1349,1027L1508,1040Z" fill="#278d46" stroke="#278d46" stroke-width="1.51"/><path d="M1327,567L1476,755L1490,630Z" fill="#46a85c" stroke="#46a85c" stroke-width="1.51"/><path d="M1327,567L1387,831L1476,755Z" fill="#3ea559" stroke="#3ea559" stroke-width="1.51"/><path d="M1327,567L1205,673L1387,831Z" fill="#46ac5e" stroke="#46ac5e" stroke-width="1.51"/><path d="M1350,150L1382,370L1454,315Z" fill="#76be7d" stroke="#76be7d" stroke-width="1.51"/><path d="M1298,-143L1344,53L1452,-57Z" fill="#94cb9a" stroke="#94cb9a" stroke-width="1.51"/><path d="M1298,-143L1173,-39L1344,53Z" fill="#98d09d" stroke="#98d09d" stroke-width="1.51"/><path d="M1236,989L1136,1183L1349,1027Z" fill="#2d9149" stroke="#2d9149" stroke-width="1.51"/><path d="M1349,1027L1136,1183L1358,1229Z" fill="#258842" stroke="#258842" stroke-width="1.51"/><path d="M1136,1183L1037,1285L1358,1229Z" fill="#2d8242" stroke="#2d8242" stroke-width="1.51"/><path d="M1350,150L1216,283L1382,370Z" fill="#7bc381" stroke="#7bc381" stroke-width="1.51"/><path d="M1236,989L1352,958L1387,831Z" fill="#30984f" stroke="#30984f" stroke-width="1.51"/><path d="M1138,767L1236,989L1387,831Z" fill="#39a155" stroke="#39a155" stroke-width="1.51"/><path d="M1205,673L1138,767L1387,831Z" fill="#42aa5c" stroke="#42aa5c" stroke-width="1.51"/><path d="M1216,283L1310,460L1382,370Z" fill="#70bf78" stroke="#70bf78" stroke-width="1.51"/><path d="M1153,1030L1136,1183L1236,989Z" fill="#33934b" stroke="#33934b" stroke-width="1.51"/><path d="M1236,989L1349,1027L1352,958Z" fill="#2c944b" stroke="#2c944b" stroke-width="1.51"/><path d="M1344,53L1138,172L1350,150Z" fill="#8acb8f" stroke="#8acb8f" stroke-width="1.51"/><path d="M1138,172L1216,283L1350,150Z" fill="#86ca8b" stroke="#86ca8b" stroke-width="1.51"/><path d="M1310,460L1224,488L1327,567Z" fill="#5fb86c" stroke="#5fb86c" stroke-width="1.51"/><path d="M1173,-39L1138,172L1344,53Z" fill="#93cf97" stroke="#93cf97" stroke-width="1.51"/><path d="M837,1265L778,1277L1037,1285Z" fill="#43884c" stroke="#43884c" stroke-width="1.51"/><path d="M1216,283L1224,488L1310,460Z" fill="#6ec077" stroke="#6ec077" stroke-width="1.51"/><path d="M1224,488L1205,673L1327,567Z" fill="#58b567" stroke="#58b567" stroke-width="1.51"/><path d="M319,-217L562,-138L942,-200Z" fill="#ccebc8" stroke="#ccebc8" stroke-width="1.51"/><path d="M1216,283L1091,409L1224,488Z" fill="#75c37b" stroke="#75c37b" stroke-width="1.51"/><path d="M1142,-152L1173,-39L1298,-143Z" fill="#a0d4a4" stroke="#a0d4a4" stroke-width="1.51"/><path d="M1025,817L1012,931L1138,767Z" fill="#4cab5f" stroke="#4cab5f" stroke-width="1.51"/><path d="M1003,669L1205,673L1224,488Z" fill="#5db86a" stroke="#5db86a" stroke-width="1.51"/><path d="M1091,409L1003,669L1224,488Z" fill="#6bbf71" stroke="#6bbf71" stroke-width="1.51"/><path d="M1012,931L1153,1030L1236,989Z" fill="#3c9c53" stroke="#3c9c53" stroke-width="1.51"/><path d="M1138,767L1012,931L1236,989Z" fill="#42a358" stroke="#42a358" stroke-width="1.51"/><path d="M1073,168L1138,172L1173,-39Z" fill="#97d198" stroke="#97d198" stroke-width="1.51"/><path d="M1050,-53L1073,168L1173,-39Z" fill="#9fd59f" stroke="#9fd59f" stroke-width="1.51"/><path d="M1138,172L1020,345L1216,283Z" fill="#87cc89" stroke="#87cc89" stroke-width="1.51"/><path d="M1020,345L1091,409L1216,283Z" fill="#80c982" stroke="#80c982" stroke-width="1.51"/><path d="M1073,168L1020,345L1138,172Z" fill="#8ecf8e" stroke="#8ecf8e" stroke-width="1.51"/><path d="M1003,669L1138,767L1205,673Z" fill="#53b365" stroke="#53b365" stroke-width="1.51"/><path d="M919,583L1003,669L1091,409Z" fill="#6fc173" stroke="#6fc173" stroke-width="1.51"/><path d="M1012,931L1075,1040L1153,1030Z" fill="#409d53" stroke="#409d53" stroke-width="1.51"/><path d="M1075,1040L1136,1183L1153,1030Z" fill="#37944c" stroke="#37944c" stroke-width="1.51"/><path d="M1142,-152L1050,-53L1173,-39Z" fill="#a5d7a5" stroke="#a5d7a5" stroke-width="1.51"/><path d="M942,-200L992,-127L1142,-152Z" fill="#afdcae" stroke="#afdcae" stroke-width="1.51"/><path d="M1003,669L1025,817L1138,767Z" fill="#52b264" stroke="#52b264" stroke-width="1.51"/><path d="M992,-127L1050,-53L1142,-152Z" fill="#aadaa9" stroke="#aadaa9" stroke-width="1.51"/><path d="M1075,1040L1037,1285L1136,1183Z" fill="#378d49" stroke="#378d49" stroke-width="1.51"/><path d="M847,414L919,583L1020,345Z" fill="#82ca81" stroke="#82ca81" stroke-width="1.51"/><path d="M821,1096L837,1265L1037,1285Z" fill="#458f4f" stroke="#458f4f" stroke-width="1.51"/><path d="M864,266L1020,345L1073,168Z" fill="#92d18f" stroke="#92d18f" stroke-width="1.51"/><path d="M1050,-53L857,23L1073,168Z" fill="#a5d9a2" stroke="#a5d9a2" stroke-width="1.51"/><path d="M857,23L840,110L1073,168Z" fill="#a5d9a1" stroke="#a5d9a1" stroke-width="1.51"/><path d="M821,1096L1037,1285L1075,1040Z" fill="#41954e" stroke="#41954e" stroke-width="1.51"/><path d="M1020,345L919,583L1091,409Z" fill="#7bc77d" stroke="#7bc77d" stroke-width="1.51"/><path d="M1012,931L821,1096L1075,1040Z" fill="#489f56" stroke="#489f56" stroke-width="1.51"/><path d="M840,110L864,266L1073,168Z" fill="#9ed79a" stroke="#9ed79a" stroke-width="1.51"/><path d="M1003,669L861,753L1025,817Z" fill="#5bb668" stroke="#5bb668" stroke-width="1.51"/><path d="M992,-127L857,23L1050,-53Z" fill="#aedcaa" stroke="#aedcaa" stroke-width="1.51"/><path d="M562,-138L694,-104L942,-200Z" fill="#c3e6bd" stroke="#c3e6bd" stroke-width="1.51"/><path d="M869,897L821,1096L1012,931Z" fill="#51a65d" stroke="#51a65d" stroke-width="1.51"/><path d="M869,897L1012,931L1025,817Z" fill="#51aa60" stroke="#51aa60" stroke-width="1.51"/><path d="M861,753L869,897L1025,817Z" fill="#59b166" stroke="#59b166" stroke-width="1.51"/><path d="M864,266L847,414L1020,345Z" fill="#8fd08c" stroke="#8fd08c" stroke-width="1.51"/><path d="M919,583L861,753L1003,669Z" fill="#67bc6f" stroke="#67bc6f" stroke-width="1.51"/><path d="M942,-200L857,23L992,-127Z" fill="#b3dfaf" stroke="#b3dfaf" stroke-width="1.51"/><path d="M319,-217L379,-180L562,-138Z" fill="#d8f0d2" stroke="#d8f0d2" stroke-width="1.51"/><path d="M758,1051L821,1096L869,897Z" fill="#55a55f" stroke="#55a55f" stroke-width="1.51"/><path d="M694,-104L857,23L942,-200Z" fill="#b9e2b5" stroke="#b9e2b5" stroke-width="1.51"/><path d="M847,414L677,510L919,583Z" fill="#84cb82" stroke="#84cb82" stroke-width="1.51"/><path d="M677,510L683,647L919,583Z" fill="#7ec97f" stroke="#7ec97f" stroke-width="1.51"/><path d="M683,647L861,753L919,583Z" fill="#70c176" stroke="#70c176" stroke-width="1.51"/><path d="M821,1096L778,1277L837,1265Z" fill="#4b9254" stroke="#4b9254" stroke-width="1.51"/><path d="M721,132L752,260L840,110Z" fill="#aadda4" stroke="#aadda4" stroke-width="1.51"/><path d="M694,-104L676,6L857,23Z" fill="#bce4b6" stroke="#bce4b6" stroke-width="1.51"/><path d="M683,647L738,773L861,753Z" fill="#6dbf76" stroke="#6dbf76" stroke-width="1.51"/><path d="M752,260L847,414L864,266Z" fill="#99d594" stroke="#99d594" stroke-width="1.51"/><path d="M840,110L752,260L864,266Z" fill="#a2d99e" stroke="#a2d99e" stroke-width="1.51"/><path d="M683,914L758,1051L869,897Z" fill="#5cac67" stroke="#5cac67" stroke-width="1.51"/><path d="M861,753L738,773L869,897Z" fill="#62b66d" stroke="#62b66d" stroke-width="1.51"/><path d="M738,773L683,914L869,897Z" fill="#63b36c" stroke="#63b36c" stroke-width="1.51"/><path d="M721,132L840,110L857,23Z" fill="#afdea9" stroke="#afdea9" stroke-width="1.51"/><path d="M676,6L721,132L857,23Z" fill="#b5e1af" stroke="#b5e1af" stroke-width="1.51"/><path d="M752,260L677,510L847,414Z" fill="#94d390" stroke="#94d390" stroke-width="1.51"/><path d="M758,1051L778,1277L821,1096Z" fill="#519b59" stroke="#519b59" stroke-width="1.51"/><path d="M758,1051L627,1268L778,1277Z" fill="#539659" stroke="#539659" stroke-width="1.51"/><path d="M517,269L677,510L752,260Z" fill="#a1d99b" stroke="#a1d99b" stroke-width="1.51"/><path d="M539,1066L627,1268L758,1051Z" fill="#5ca161" stroke="#5ca161" stroke-width="1.51"/><path d="M517,269L477,355L677,510Z" fill="#a4da9d" stroke="#a4da9d" stroke-width="1.51"/><path d="M721,132L517,269L752,260Z" fill="#addea6" stroke="#addea6" stroke-width="1.51"/><path d="M683,914L539,1066L758,1051Z" fill="#61aa69" stroke="#61aa69" stroke-width="1.51"/><path d="M517,160L517,269L721,132Z" fill="#b5e1ae" stroke="#b5e1ae" stroke-width="1.51"/><path d="M683,647L533,725L738,773Z" fill="#76c37d" stroke="#76c37d" stroke-width="1.51"/><path d="M533,725L683,914L738,773Z" fill="#6fbc77" stroke="#6fbc77" stroke-width="1.51"/><path d="M477,355L532,525L677,510Z" fill="#99d595" stroke="#99d595" stroke-width="1.51"/><path d="M676,6L517,160L721,132Z" fill="#b9e3b2" stroke="#b9e3b2" stroke-width="1.51"/><path d="M535,8L517,160L676,6Z" fill="#c0e6ba" stroke="#c0e6ba" stroke-width="1.51"/><path d="M562,-138L535,8L676,6Z" fill="#c7e9c1" stroke="#c7e9c1" stroke-width="1.51"/><path d="M510,960L539,1066L683,914Z" fill="#69af70" stroke="#69af70" stroke-width="1.51"/><path d="M533,725L510,960L683,914Z" fill="#70b977" stroke="#70b977" stroke-width="1.51"/><path d="M677,510L532,525L683,647Z" fill="#8ace88" stroke="#8ace88" stroke-width="1.51"/><path d="M532,525L515,609L683,647Z" fill="#89cd89" stroke="#89cd89" stroke-width="1.51"/><path d="M562,-138L676,6L694,-104Z" fill="#c5e8c0" stroke="#c5e8c0" stroke-width="1.51"/><path d="M515,609L533,725L683,647Z" fill="#82c985" stroke="#82c985" stroke-width="1.51"/><path d="M425,826L510,960L533,725Z" fill="#78bd7e" stroke="#78bd7e" stroke-width="1.51"/><path d="M539,1066L435,1244L627,1268Z" fill="#609d64" stroke="#609d64" stroke-width="1.51"/><path d="M228,1178L44,1231L435,1244Z" fill="#70a072" stroke="#70a072" stroke-width="1.51"/><path d="M425,826L450,943L510,960Z" fill="#74b87b" stroke="#74b87b" stroke-width="1.51"/><path d="M425,37L517,160L535,8Z" fill="#c4e8be" stroke="#c4e8be" stroke-width="1.51"/><path d="M379,-180L425,37L535,8Z" fill="#d0edc9" stroke="#d0edc9" stroke-width="1.51"/><path d="M463,1066L435,1244L539,1066Z" fill="#66a66b" stroke="#66a66b" stroke-width="1.51"/><path d="M379,-180L535,8L562,-138Z" fill="#d0ecca" stroke="#d0ecca" stroke-width="1.51"/><path d="M517,160L406,197L517,269Z" fill="#b9e3b2" stroke="#b9e3b2" stroke-width="1.51"/><path d="M477,355L365,417L532,525Z" fill="#a3da9e" stroke="#a3da9e" stroke-width="1.51"/><path d="M365,417L426,586L532,525Z" fill="#9cd698" stroke="#9cd698" stroke-width="1.51"/><path d="M426,586L515,609L532,525Z" fill="#91d190" stroke="#91d190" stroke-width="1.51"/><path d="M515,609L426,586L533,725Z" fill="#8acc8b" stroke="#8acc8b" stroke-width="1.51"/><path d="M510,960L463,1066L539,1066Z" fill="#6aad70" stroke="#6aad70" stroke-width="1.51"/><path d="M426,586L323,652L533,725Z" fill="#8ccd8e" stroke="#8ccd8e" stroke-width="1.51"/><path d="M323,652L425,826L533,725Z" fill="#82c889" stroke="#82c889" stroke-width="1.51"/><path d="M450,943L463,1066L510,960Z" fill="#6fb175" stroke="#6fb175" stroke-width="1.51"/><path d="M425,37L406,197L517,160Z" fill="#c2e7bb" stroke="#c2e7bb" stroke-width="1.51"/><path d="M406,197L477,355L517,269Z" fill="#b4e1ad" stroke="#b4e1ad" stroke-width="1.51"/><path d="M450,943L297,1075L463,1066Z" fill="#71b076" stroke="#71b076" stroke-width="1.51"/><path d="M297,1075L435,1244L463,1066Z" fill="#6ba76f" stroke="#6ba76f" stroke-width="1.51"/><path d="M406,197L365,417L477,355Z" fill="#b2e0ab" stroke="#b2e0ab" stroke-width="1.51"/><path d="M310,414L365,417L406,197Z" fill="#b4e1ad" stroke="#b4e1ad" stroke-width="1.51"/><path d="M304,158L406,197L425,37Z" fill="#c6e9bf" stroke="#c6e9bf" stroke-width="1.51"/><path d="M323,652L283,799L425,826Z" fill="#86c88c" stroke="#86c88c" stroke-width="1.51"/><path d="M278,940L297,1075L450,943Z" fill="#77b57c" stroke="#77b57c" stroke-width="1.51"/><path d="M379,-180L215,28L425,37Z" fill="#d6efd0" stroke="#d6efd0" stroke-width="1.51"/><path d="M297,1075L228,1178L435,1244Z" fill="#6ea571" stroke="#6ea571" stroke-width="1.51"/><path d="M425,826L278,940L450,943Z" fill="#7abb80" stroke="#7abb80" stroke-width="1.51"/><path d="M200,261L310,414L406,197Z" fill="#bbe4b5" stroke="#bbe4b5" stroke-width="1.51"/><path d="M304,158L200,261L406,197Z" fill="#c4e8bd" stroke="#c4e8bd" stroke-width="1.51"/><path d="M283,799L278,940L425,826Z" fill="#81c086" stroke="#81c086" stroke-width="1.51"/><path d="M365,417L310,414L426,586Z" fill="#a4daa0" stroke="#a4daa0" stroke-width="1.51"/><path d="M310,414L323,652L426,586Z" fill="#9cd699" stroke="#9cd699" stroke-width="1.51"/><path d="M215,28L304,158L425,37Z" fill="#ceecc8" stroke="#ceecc8" stroke-width="1.51"/><path d="M319,-217L215,28L379,-180Z" fill="#dcf1d6" stroke="#dcf1d6" stroke-width="1.51"/><path d="M-101,-131L127,-99L319,-217Z" fill="#e6f6e1" stroke="#e6f6e1" stroke-width="1.51"/><path d="M127,-99L215,28L319,-217Z" fill="#dff3d9" stroke="#dff3d9" stroke-width="1.51"/><path d="M310,414L139,557L323,652Z" fill="#a3d89f" stroke="#a3d89f" stroke-width="1.51"/><path d="M200,261L137,336L310,414Z" fill="#bbe4b5" stroke="#bbe4b5" stroke-width="1.51"/><path d="M78,726L283,799L323,652Z" fill="#8fcd94" stroke="#8fcd94" stroke-width="1.51"/><path d="M139,557L78,726L323,652Z" fill="#9bd39b" stroke="#9bd39b" stroke-width="1.51"/><path d="M75,412L139,557L310,414Z" fill="#b0deab" stroke="#b0deab" stroke-width="1.51"/><path d="M137,336L75,412L310,414Z" fill="#b8e2b2" stroke="#b8e2b2" stroke-width="1.51"/><path d="M278,940L84,1112L297,1075Z" fill="#7ab37e" stroke="#7ab37e" stroke-width="1.51"/><path d="M133,202L200,261L304,158Z" fill="#c8eac1" stroke="#c8eac1" stroke-width="1.51"/><path d="M215,28L167,38L304,158Z" fill="#d3edcc" stroke="#d3edcc" stroke-width="1.51"/><path d="M167,38L133,202L304,158Z" fill="#cfecc8" stroke="#cfecc8" stroke-width="1.51"/><path d="M67,914L278,940L283,799Z" fill="#85c08a" stroke="#85c08a" stroke-width="1.51"/><path d="M84,1112L228,1178L297,1075Z" fill="#76ac7a" stroke="#76ac7a" stroke-width="1.51"/><path d="M67,914L84,1112L278,940Z" fill="#81b886" stroke="#81b886" stroke-width="1.51"/><path d="M78,726L67,914L283,799Z" fill="#8dc892" stroke="#8dc892" stroke-width="1.51"/><path d="M127,-99L167,38L215,28Z" fill="#dcf2d6" stroke="#dcf2d6" stroke-width="1.51"/><path d="M84,1112L44,1231L228,1178Z" fill="#78a87b" stroke="#78a87b" stroke-width="1.51"/><path d="M133,202L137,336L200,261Z" fill="#c5e8be" stroke="#c5e8be" stroke-width="1.51"/><path d="M127,-99L-23,3L167,38Z" fill="#e1f4db" stroke="#e1f4db" stroke-width="1.51"/><path d="M0,203L133,202L167,38Z" fill="#d3eecd" stroke="#d3eecd" stroke-width="1.51"/><path d="M-23,3L0,203L167,38Z" fill="#dbf1d5" stroke="#dbf1d5" stroke-width="1.51"/><path d="M-25,825L67,914L78,726Z" fill="#91c997" stroke="#91c997" stroke-width="1.51"/><path d="M67,914L-66,1032L84,1112Z" fill="#85b889" stroke="#85b889" stroke-width="1.51"/><path d="M0,203L-1,306L133,202Z" fill="#ceebc7" stroke="#ceebc7" stroke-width="1.51"/><path d="M133,202L-1,306L137,336Z" fill="#c7e9c0" stroke="#c7e9c0" stroke-width="1.51"/><path d="M-48,571L78,726L139,557Z" fill="#a4d7a4" stroke="#a4d7a4" stroke-width="1.51"/><path d="M75,412L-48,571L139,557Z" fill="#b0deab" stroke="#b0deab" stroke-width="1.51"/><path d="M-1,306L75,412L137,336Z" fill="#c1e6bb" stroke="#c1e6bb" stroke-width="1.51"/><path d="M-101,-131L-23,3L127,-99Z" fill="#e8f6e3" stroke="#e8f6e3" stroke-width="1.51"/><path d="M-73,965L-66,1032L67,914Z" fill="#89bd8e" stroke="#89bd8e" stroke-width="1.51"/><path d="M-82,431L-48,571L75,412Z" fill="#b7e1b2" stroke="#b7e1b2" stroke-width="1.51"/><path d="M-66,1032L44,1231L84,1112Z" fill="#7faf82" stroke="#7faf82" stroke-width="1.51"/><path d="M-66,1032L-98,1251L44,1231Z" fill="#7eab82" stroke="#7eab82" stroke-width="1.51"/><path d="M-48,571L-25,825L78,726Z" fill="#9cd2a0" stroke="#9cd2a0" stroke-width="1.51"/><path d="M-1,306L-82,431L75,412Z" fill="#c0e6bb" stroke="#c0e6bb" stroke-width="1.51"/><path d="M-25,825L-73,965L67,914Z" fill="#8dc293" stroke="#8dc293" stroke-width="1.51"/><path d="M-48,571L-196,777L-25,825Z" fill="#9dd2a1" stroke="#9dd2a1" stroke-width="1.51"/><path d="M-23,3L-177,113L0,203Z" fill="#ddf2d7" stroke="#ddf2d7" stroke-width="1.51"/><path d="M-176,582L-196,777L-48,571Z" fill="#a7d8a9" stroke="#a7d8a9" stroke-width="1.51"/><path d="M-167,36L-177,113L-23,3Z" fill="#e3f4dd" stroke="#e3f4dd" stroke-width="1.51"/><path d="M-251,246L-1,306L0,203Z" fill="#d0edca" stroke="#d0edca" stroke-width="1.51"/><path d="M-177,113L-251,246L0,203Z" fill="#d8f0d2" stroke="#d8f0d2" stroke-width="1.51"/><path d="M-251,246L-82,431L-1,306Z" fill="#c9eac4" stroke="#c9eac4" stroke-width="1.51"/><path d="M-219,1197L-98,1251L-66,1032Z" fill="#81ad85" stroke="#81ad85" stroke-width="1.51"/><path d="M-183,1022L-219,1197L-66,1032Z" fill="#87b58b" stroke="#87b58b" stroke-width="1.51"/><path d="M-224,910L-73,965L-25,825Z" fill="#91c396" stroke="#91c396" stroke-width="1.51"/><path d="M-196,777L-224,910L-25,825Z" fill="#96ca9c" stroke="#96ca9c" stroke-width="1.51"/><path d="M-101,-131L-167,36L-23,3Z" fill="#e8f6e3" stroke="#e8f6e3" stroke-width="1.51"/><path d="M-82,431L-176,582L-48,571Z" fill="#b3dfb0" stroke="#b3dfb0" stroke-width="1.51"/><path d="M-73,965L-183,1022L-66,1032Z" fill="#8abb8f" stroke="#8abb8f" stroke-width="1.51"/><path d="M-241,-114L-167,36L-101,-131Z" fill="#edf8e8" stroke="#edf8e8" stroke-width="1.51"/><path d="M-261,508L-176,582L-82,431Z" fill="#b8e1b4" stroke="#b8e1b4" stroke-width="1.51"/><path d="M-251,246L-261,508L-82,431Z" fill="#c5e7c0" stroke="#c5e7c0" stroke-width="1.51"/><path d="M-224,910L-183,1022L-73,965Z" fill="#8ebf93" stroke="#8ebf93" stroke-width="1.51"/><path d="M-261,508L-196,777L-176,582Z" fill="#acdaac" stroke="#acdaac" stroke-width="1.51"/><path d="M-241,-114L-177,113L-167,36Z" fill="#e8f6e3" stroke="#e8f6e3" stroke-width="1.51"/><path d="M-241,-114L-251,246L-177,113Z" fill="#e3f4de" stroke="#e3f4de" stroke-width="1.51"/><path d="M-224,910L-219,1197L-183,1022Z" fill="#8bb98f" stroke="#8bb98f" stroke-width="1.51"/><path d="M-261,508L-224,910L-196,777Z" fill="#a0d4a5" stroke="#a0d4a5" stroke-width="1.51"/><path d="M-224,910L-261,508L-219,1197Z" fill="#96c89c" stroke="#96c89c" stroke-width="1.51"/></svg>